<svg width="40" height="51" viewBox="0 0 40 51" xmlns="http://www.w3.org/2000/svg">
    <path d="M5.455 18.183a1.819 1.819 0 0 1 1.819-1.818h18.183a1.818 1.818 0 1 1 0 3.636H7.274a1.819 1.819 0 0 1-1.819-1.818zm34.548 20.001a12.718 12.718 0 0 1-23.158 7.274H5.455A5.46 5.46 0 0 1 0 40.003V9.09a5.46 5.46 0 0 1 5.455-5.454h2.154A5.445 5.445 0 0 1 12.729 0H20a5.446 5.446 0 0 1 5.12 3.637h2.154A5.46 5.46 0 0 1 32.73 9.09v17.611a12.739 12.739 0 0 1 7.273 11.483zM10.91 5.454a1.822 1.822 0 0 0 1.818 1.82h7.274a1.818 1.818 0 1 0 0-3.637h-7.274a1.822 1.822 0 0 0-1.818 1.818zm4.173 36.367a12.7 12.7 0 0 1 0-7.273h-7.81a1.818 1.818 0 1 1 0-3.637h9.572a12.81 12.81 0 0 1 3.908-3.636H7.273a1.818 1.818 0 1 1 0-3.637h18.184a1.819 1.819 0 0 1 1.818 1.818c.609.005 1.216.053 1.818.146V9.092a1.822 1.822 0 0 0-1.818-1.819H25.12a5.445 5.445 0 0 1-5.12 3.637h-7.273a5.446 5.446 0 0 1-5.12-3.637H5.456a1.822 1.822 0 0 0-1.818 1.818v30.912a1.822 1.822 0 0 0 1.818 1.818h9.628zm21.283-3.637a9.091 9.091 0 1 0-9.091 9.092 9.1 9.1 0 0 0 9.091-9.092zm-4.641 2.01-2.632-1.315v-6.15a1.818 1.818 0 1 0-3.636 0v7.274a1.819 1.819 0 0 0 1.005 1.626l3.636 1.818a1.818 1.818 0 0 0 1.627-3.252z" fill="#56D8FF" fill-rule="nonzero"/>
</svg>
