<svg width="50" height="50" viewBox="0 0 50 50" xmlns="http://www.w3.org/2000/svg">
    <defs>
        <linearGradient x1="52.293%" y1="41.806%" x2="41.383%" y2="84.764%" id="qq8ed0rxga">
            <stop stop-color="#27E999" offset="0%"/>
            <stop stop-color="#FFF" offset="100%"/>
        </linearGradient>
    </defs>
    <g fill-rule="nonzero" fill="none">
        <path d="M25.193.21a24.773 24.773 0 1 0 0 49.544c.788 0 1.565-.04 2.334-.111 2.173-.654 3.23-3.967 3.23-3.967l.36-.87-3.245-1.367c-.177.433-.324.79-.42 1.05-.63 1.572-.96 1.853-1.078 1.891-.39.021-.782.036-1.177.036-10.959-.005-20.146-8.283-21.288-19.183-1.143-10.9 6.127-20.903 16.847-23.181 10.72-2.278 21.43 3.904 24.818 14.326 3.389 10.423-1.638 21.721-11.648 26.183l1.398 3.042c10.67-4.776 16.551-16.362 14.108-27.795C46.988 8.375 36.885.206 25.193.21z" fill="url(#qq8ed0rxga)"/>
        <path d="M17.868 19.82a4.85 4.85 0 0 1 4.435 3.001l3.623-1.275a8.75 8.75 0 0 0-8.058-5.252c-4.832 0-8.746 3.838-8.746 8.576 0 4.737 3.916 8.578 8.746 8.578a8.748 8.748 0 0 0 8.071-5.276l-3.6-1.325a4.857 4.857 0 0 1-4.471 3.084c-2.683 0-4.855-2.265-4.855-5.061s2.172-5.05 4.855-5.05z" fill="#FFF"/>
        <path d="m39.021 16.653-4.86 11.975-4.804-11.975H25.21l6.89 16.582s-1.97 4.731-3.388 8.164c-.317.767-.607 1.47-.84 2.038l3.246 1.368.84-2.036 10.788-26.116H39.02z" fill="#FFF"/>
        <path d="M46.536 26.845a21.429 21.429 0 0 1-12.605 17.71l1.397 3.042a24.777 24.777 0 0 0 14.636-22.152l-3.428 1.4z" fill="#27E999"/>
    </g>
</svg>
