<svg width="118" height="118" viewBox="0 0 118 118" xmlns="http://www.w3.org/2000/svg">
    <defs>
        <linearGradient x1="50%" y1="0%" x2="50%" y2="100%" id="a">
            <stop stop-color="#6ABDD6" offset="0%"/>
            <stop stop-color="#77DFFF" offset="100%"/>
        </linearGradient>
        <linearGradient x1="50%" y1="0%" x2="50%" y2="100%" id="b">
            <stop stop-color="#6ABDD6" offset="0%"/>
            <stop stop-color="#77DFFF" offset="100%"/>
        </linearGradient>
        <linearGradient x1="50%" y1="0%" x2="50%" y2="100%" id="c">
            <stop stop-color="#67B2C9" offset="0%"/>
            <stop stop-color="#77DFFF" offset="100%"/>
        </linearGradient>
    </defs>
    <g fill="none" fill-rule="evenodd">
        <rect fill="#EEFBFF" width="118" height="118" rx="14"/>
        <path d="M40.753 65.91a5.932 5.932 0 0 1-1.136-2.492l-.535-2.715-3.623 1.164-3.624-1.164-.535 2.715a5.932 5.932 0 0 1-3.269 4.208l-4.592 2.187a3.981 3.981 0 0 0-2.158 4.526l.02.087a6.736 6.736 0 0 0 4.969 4.985c5.887 1.406 11.986 1.385 18.296-.062a6.768 6.768 0 0 0 5.07-5.01 3.981 3.981 0 0 0-2.157-4.526l-4.593-2.187a5.932 5.932 0 0 1-2.133-1.716z" fill="#D4D9E3" fill-rule="nonzero"/>
        <path d="M19.753 31.91a5.932 5.932 0 0 1-1.136-2.492l-.535-2.715-3.623 1.164-3.624-1.164-.535 2.715a5.932 5.932 0 0 1-3.269 4.208L2.44 35.813A3.981 3.981 0 0 0 .281 40.34l.02.087a6.736 6.736 0 0 0 4.969 4.985c5.887 1.406 11.986 1.385 18.296-.062a6.768 6.768 0 0 0 5.07-5.01 3.981 3.981 0 0 0-2.157-4.526l-4.593-2.187a5.932 5.932 0 0 1-2.133-1.716z" fill="url(#a)" fill-rule="nonzero" transform="translate(21 34)"/>
        <path d="M35.459 65.472a5.755 5.755 0 0 1-3.636-1.294 5.487 5.487 0 0 1-2.004-3.836l-.43-5.626a6.087 6.087 0 0 1 6.07-6.55 6.087 6.087 0 0 1 6.07 6.55l-.43 5.626a5.487 5.487 0 0 1-2.004 3.836 5.755 5.755 0 0 1-3.636 1.294z" fill="#77DFFF" fill-rule="nonzero"/>
        <path d="M77.247 65.91a5.932 5.932 0 0 0 1.135-2.492l.536-2.715 3.623 1.164 3.623-1.164.536 2.715a5.932 5.932 0 0 0 3.269 4.208l4.592 2.187a3.981 3.981 0 0 1 2.158 4.526l-.02.087a6.736 6.736 0 0 1-4.969 4.985c-5.887 1.406-11.986 1.385-18.296-.062a6.768 6.768 0 0 1-5.071-5.01 3.981 3.981 0 0 1 2.158-4.526l4.593-2.187a5.932 5.932 0 0 0 2.133-1.716z" fill="#D4D9E3" fill-rule="nonzero"/>
        <path d="M56.247 31.91a5.932 5.932 0 0 0 1.135-2.492l.536-2.715 3.623 1.164 3.623-1.164.536 2.715a5.932 5.932 0 0 0 3.269 4.208l4.592 2.187a3.981 3.981 0 0 1 2.158 4.526l-.02.087a6.736 6.736 0 0 1-4.969 4.985c-5.887 1.406-11.986 1.385-18.296-.062a6.768 6.768 0 0 1-5.071-5.01 3.981 3.981 0 0 1 2.158-4.526l4.593-2.187a5.932 5.932 0 0 0 2.133-1.716z" fill="url(#b)" fill-rule="nonzero" transform="translate(21 34)"/>
        <path d="M82.541 65.472c1.325 0 2.61-.457 3.636-1.294a5.487 5.487 0 0 0 2.005-3.836l.429-5.626a6.087 6.087 0 0 0-6.07-6.55 6.087 6.087 0 0 0-6.07 6.55l.43 5.626a5.487 5.487 0 0 0 2.004 3.836 5.755 5.755 0 0 0 3.636 1.294z" fill="#77DFFF" fill-rule="nonzero"/>
        <path d="M48.534 35.195a11.803 11.803 0 0 1-2.26-4.958l-1.065-5.401L38 27.152l-7.209-2.316-1.065 5.401a11.803 11.803 0 0 1-6.504 8.372l-9.138 4.353a7.921 7.921 0 0 0-4.294 9.006l.041.173a13.403 13.403 0 0 0 9.886 9.918c11.715 2.797 23.85 2.756 36.405-.124a13.467 13.467 0 0 0 10.09-9.967 7.921 7.921 0 0 0-4.295-9.006L52.78 38.61a11.803 11.803 0 0 1-4.245-3.414z" fill="url(#c)" fill-rule="nonzero" transform="translate(21 34)"/>
        <path d="M66.252 65.858a11.477 11.477 0 0 1-14.504 0 13.095 13.095 0 0 1-4.776-9.067l-.737-8.876A12.809 12.809 0 0 1 59 34.048a12.809 12.809 0 0 1 12.765 13.867l-.737 8.876a13.095 13.095 0 0 1-4.776 9.067z" fill="#77DFFF" fill-rule="nonzero"/>
        <path d="M59.345 107.522c-5.437 0-9.845-4.407-9.845-9.844 0-5.437 4.408-9.845 9.845-9.845s9.844 4.408 9.844 9.845-4.407 9.844-9.844 9.844z" fill="#667DFF"/>
        <path d="M62.115 101.145a.49.49 0 0 0 .698 0 .504.504 0 0 0 0-.708l-1.524-1.524a3.467 3.467 0 1 0-.703.704l1.529 1.528zm-6.083-4.303a2.476 2.476 0 1 1 4.953 0 2.476 2.476 0 0 1-4.953 0z" fill="#FFF" fill-rule="nonzero"/>
        <g fill-rule="nonzero">
            <path fill="#3DD491" d="m49.135 10.338 10.328 17.557L69.79 10.338h-4.13l-6.197 10.534-6.249-10.534z"/>
            <path fill="#35495E" d="m53.266 10.338 6.222 10.672 6.171-10.672h-3.805l-2.366 4.104-2.417-4.104z"/>
        </g>
    </g>
</svg>
