<svg width="690" height="583" viewBox="0 0 690 583" xmlns="http://www.w3.org/2000/svg" xmlns:xlink="http://www.w3.org/1999/xlink">
    <defs>
        <linearGradient x1="50%" y1="0%" x2="50%" y2="100%" id="a">
            <stop stop-color="#667DFF" offset="0%"/>
            <stop stop-color="#364FDE" offset="100%"/>
        </linearGradient>
        <linearGradient x1="50%" y1="0%" x2="50%" y2="100%" id="b">
            <stop stop-color="#B8B8B8" offset="0%"/>
            <stop stop-color="#3C3F56" offset="100%"/>
        </linearGradient>
        <linearGradient x1="2.48%" y1="48.19%" x2="80.909%" y2="54.049%" id="c">
            <stop stop-color="#CD7651" offset="0%"/>
            <stop stop-color="#E5926F" offset="100%"/>
        </linearGradient>
        <linearGradient x1="50%" y1="95.131%" x2="50%" y2="6.918%" id="d">
            <stop stop-color="#667DFF" offset="0%"/>
            <stop stop-color="#364FDE" offset="100%"/>
        </linearGradient>
        <linearGradient x1="92.505%" y1="28.077%" x2="16.168%" y2="75.526%" id="e">
            <stop stop-color="#38394D" offset="0%"/>
            <stop stop-color="#35384C" offset="100%"/>
        </linearGradient>
        <linearGradient x1="92.913%" y1="33.866%" x2="15.272%" y2="67.895%" id="f">
            <stop stop-color="#B9B9B9" offset="0%"/>
            <stop stop-color="#6E6D6D" offset="100%"/>
        </linearGradient>
        <linearGradient x1="50%" y1="0%" x2="55.094%" y2="92.833%" id="g">
            <stop stop-color="#364FDE" offset="0%"/>
            <stop stop-color="#667DFF" offset="100%"/>
        </linearGradient>
        <linearGradient x1="17.381%" y1="31.058%" x2="90.276%" y2="66.925%" id="h">
            <stop stop-color="#42445F" offset="0%"/>
            <stop stop-color="#36394C" offset="100%"/>
        </linearGradient>
        <circle id="i" cx="15" cy="15" r="15"/>
        <circle id="k" cx="15" cy="15" r="15"/>
    </defs>
    <g fill="none" fill-rule="evenodd">
        <g transform="translate(117 222)">
            <ellipse fill="#000" opacity=".3" cx="192" cy="314.5" rx="192" ry="46.5"/>
            <path d="M89.705 37.767h-.062l-.11-.002.177.002h.053l.276.006h.007c.422.01.848.028 1.272.055h80.276a29.642 29.642 0 0 1 1.934-.062c4.88 0 9.441 1.203 13.497 3.231 5.132 1.774 12.863 10.645 13.497 11.406 3.175 4.05 10.245 12.758 18.574 21.283l21.98-10.511s.352-.058.995-.066h.238c2.174.018 6.998.629 12.706 4.945 15.525 11.723 14.194 33.393 13.307 40.49-.317 6.147-3.802 13.56-7.794 19.897-4.178 6.697-14.955 14.274-26.633 13.737a26.6 26.6 0 0 1-2.198-.114c-13.205-.142-25.999-4.845-37.54-11.815l.073.487.2 1.334c.334 2.223.671 4.425.988 6.6l.171 1.184c2.441 17.124 3.349 32.435-8.69 42.067-.024 3.057-1.254 7.624-2.819 12.22l-.264.765c-.088.255-.178.51-.269.765l-.273.762c-2.663 7.35-5.817 14.129-5.817 14.129l3.802 8.871c-3.929-4.119-30.035-11.026-61.781-16.158-33.774-5.45-58.55 5.386-59.69 9.061l-.042-.04c-.438-.43-4.3-4.12-8.893-5.79-5.512-2.027-5.386-6.97-5.386-6.97l.005-.024c.073-.403 1.05-5.756 2.205-11.72l.14-.719.282-1.447.143-.726.072-.363.144-.724c.144-.723.288-1.44.431-2.146a37.827 37.827 0 0 1-2.747-5.7l-.265-.72-.068.007a41.713 41.713 0 0 1-23.58-5.236l-.064-.036c-11.587-6.516-19.86-18.448-21.116-32.67-.824-9.441 1.52-18.44 6.273-25.916 1.14-2.472 3.295-5.07 6.653-8.048 1.267-1.204 2.661-2.344 4.055-3.421 5.323-4.246 12.547-9.188 21.735-15.398 11.976-8.06 18.763-20.517 21.407-26.373 3.854-11.825 14.984-20.39 28.08-20.39h.127l.356.001h-.03z" fill="url(#a)" transform="translate(14.205 50.692)"/>
            <g opacity=".7" fill="#FFF" fill-rule="nonzero">
                <path d="M129.39 134.44c-1.396-8.4.393-13.818.393-13.818s-.543 3.317 2.63 8.805c-.275 6.656.914 10.174.914 10.174l.276-.189-.277.226s-1.936-1.697-3.936-5.199zM137.376 133.536c.778.84 1.51 1.429 2.045 1.715l-.01-.005s.603.24.716.098c.772-.762 1.005-2.224.605-5-2.78-1.72-3.05-4.257-3.05-4.257s-.634 3.488-.306 7.449z" fill-opacity=".3"/>
                <path d="M129.783 120.622s-2.613 7.911.94 19.436a.822.822 0 0 1-.32.903l-4.267 2.774c-.405.278-.973.076-1.136-.405-1.008-3.068-3.71-13.211-.238-24.09.16-.432.635-.671 1.06-.474l3.961 1.856zM137.194 136.96l-3.867 2.641s-1.825-5.399-.43-15.472a.78.78 0 0 1 1.205-.542l3.58 2.5s-.89 4.902-.015 9.683c.091.478-.105.946-.473 1.19zM144.376 131.034l-3.403-2.42c-.21-.154-.541.054-.478.312.697 3.715.525 5.536-.368 6.418-.113.142-.716-.098-.716-.098.565.312.713.171.713.171.59-.418 2.8-1.912 4.197-2.813.553-.383.58-1.186.055-1.57z"/>
            </g>
            <path d="M264.088 131.292c2.471 6.78-3.612 15.525-13.624 19.58-10.011 4.055-20.15 1.838-22.684-4.942-2.472-6.78-5.006-11.913-5.006-11.913l35.167-16.602c.064 0 1.585 3.739 6.147 13.877z" stroke="#444B75" stroke-width="2" stroke-linecap="round" stroke-linejoin="round"/>
            <path d="M236.334 114.31c-10.012 4.056-16.095 12.8-13.624 19.58 2.472 6.78 12.673 8.998 22.685 4.943 10.012-4.056 16.095-12.8 13.624-19.58-2.472-6.78-12.673-8.998-22.685-4.943z" fill="#444B75" fill-rule="nonzero"/>
            <path d="M253.38 69.828s1.203 3.739 1.52 6.59c.95 8.871-.254 16.475-.38 17.552l-4.753-13.623 3.612-10.519z" fill="#E5926F"/>
            <path d="M224.093.887 245.447.57c1.078 0 1.648.76 1.331 1.775l-19.073 56.204c-.317 1.014-1.457 1.838-2.534 1.838l-21.354.317c-1.078 0-1.648-.76-1.331-1.775l19.073-56.204c.317-1.014 1.457-1.838 2.534-1.838z" fill="url(#b)" fill-rule="nonzero" transform="translate(14.205 50.692)"/>
            <path d="m245.458 101.067 9.716 15.448a7.993 7.993 0 0 1 1.69 2.738c2.218 6.083-3.231 13.877-12.166 17.489-8.934 3.611-17.996 1.584-20.213-4.436a8.173 8.173 0 0 1-.467-2.155l-3.715-13.686 25.155-15.398z" fill="#CE7752"/>
            <path d="M224.041 130.152c.063.57.127 1.14.317 1.647 4.752-.38 10.012-3.041 14.13-7.54 6.337-6.907 7.984-15.968 4.31-21.481l-22.495 13.687 3.738 13.687z" fill-opacity=".15" fill="#000" fill-rule="nonzero"/>
            <path d="M231.265 99.61s-19.517 15.968-7.034 20.847c8.935 3.485 27.31-9.568 29.338-24.966 1.711-13.053-22.304 4.119-22.304 4.119z" fill="#D6805C"/>
            <path d="M240.96 110.952c14.51-8.998-13.687-14.384-18.25-2.218-1.457 2.155-2.598 4.436-2.598 6.464 3.93 1.837 10.52 2.154 20.848-4.246z" fill-opacity=".15" fill="#000" fill-rule="nonzero"/>
            <path d="M225.879 106.2c-7.73 1.014-7.794-5.703-4.436-6.717-5.07-.57-5.45-5.83 1.52-8.364 9.569-3.485 20.975-3.802 20.975-3.802l-.697-2.345s-4.182 1.648-6.78 2.472c-6.02 1.9-8.935-4.436 1.837-10.519 6.147-3.422 10.962-4.626 13.687.697 2.915 5.576 7.034 16.602-4.942 30.669-3.295 9.631-16.475 5.069-18.883 3.421-3.422-2.154-3.168-3.928-2.281-5.512z" fill="#E28E6B"/>
            <path d="M239.685 96.118c4.236-.113 7.948.271 10.994 1.241a.5.5 0 1 1-.303.953c-2.925-.931-6.531-1.304-10.665-1.195-4.009.107-8.308.658-12.635 1.51-1.457.286-2.83.59-4.093.897l-.914.228-.797.208-.703.193a.5.5 0 1 1-.28-.96l.724-.2.808-.21.297-.075a95.58 95.58 0 0 1 4.764-1.063c4.378-.861 8.731-1.419 12.803-1.527zM225.9 106.018l1.209-.096c.2-.015.398-.03.596-.043l1.175-.076 1.153-.062 1.129-.047c6.52-.232 11.836.311 15.587 2.081a.5.5 0 1 1-.427.905c-3.476-1.64-8.49-2.182-14.634-2.001l-1.096.039c-.184.007-.37.016-.556.025l-1.13.06-1.153.075-1.174.088-.595.049a.5.5 0 0 1-.084-.997zM236.818 88.122l-.014.004-.105.008-.053-.005-.037-.008-.046-.018-.164-.08-.185-.43.073-.223.253-.194.061-.041c.01-.003.01.001.01.009l.24-.032.317-.033.549-.05.615-.048.328-.022a51.799 51.799 0 0 1 4.865-.094c4.75.142 8.333.986 10.09 2.832a.5.5 0 0 1-.725.69c-1.512-1.59-4.899-2.388-9.395-2.523a50.813 50.813 0 0 0-4.77.093l-.63.044-.57.048-.693.071-.013.01-.001-.008z" fill="#CF744D" fill-rule="nonzero"/>
            <path d="M247.625 82.921a.5.5 0 0 1 .437.895l-.081.04-10.645 4.055a.5.5 0 0 1-.437-.895l.08-.04 10.646-4.055z" fill="#CF744D" fill-rule="nonzero"/>
            <g fill="#444B75" fill-rule="nonzero">
                <path d="M202.1 137.463a1 1 0 0 1 1.11.731l.023.114 6.273 43.089a1 1 0 0 1-1.955.402l-.024-.114-6.273-43.088a1 1 0 0 1 .845-1.134z"/>
            </g>
            <g>
                <path d="M106.168 137.386a1 1 0 0 1 1.847.758l-.044.108-13.07 27.181a1 1 0 0 1-1.847-.758l.045-.108 13.07-27.181zM85.242 189.073l-.08.403-.148.801-.134.796-.119.789-.053.392-.097.778c-.015.129-.03.258-.043.386l-.076.766-.06.756c-.152 2.13-.131 4.144.054 5.978l.072.64.086.624c.724 4.827 2.69 8.164 5.723 8.67l2.653.571 3.135.661 2.904.604 5.53 1.135a1 1 0 0 0 1.144-.652l.485-1.437.447-1.362.32-.994a243.17 243.17 0 0 0 2.75-9.208 177.94 177.94 0 0 0 1.975-7.776l.249-1.108.233-1.083.218-1.058.203-1.033.095-.506.18-.994.162-.967.076-.473.138-.927.063-.453.114-.886.096-.858.08-.83c.247-2.853.175-5.184-.26-6.925l-.034-.125.006.086a1 1 0 0 0-.793-.979l-3.284-.688-2.982-.617-2.957-.604a923.75 923.75 0 0 0-1.45-.293l-3.303-.656c-2.25-.391-4.635 1.002-6.797 3.6l-.358.444c-.237.304-.472.622-.703.953l-.343.508c-.34.517-.673 1.065-.995 1.64l-.319.583a34.427 34.427 0 0 0-1.341 2.836l-.275.673c-.27.68-.528 1.382-.77 2.103l-.235.727-.226.738-.215.75-.103.379-.197.766c-.16.642-.307 1.295-.44 1.956zm12.823-16.707.149.021 1.94.384 1.315.263 2.916.591 2.972.611 4.132.861.033.162c.404 2.109.28 5.224-.305 9.143l-.143.918-.159.947-.175.974-.19 1-.207 1.028-.221 1.053-.117.536-.244 1.09a175.967 175.967 0 0 1-1.953 7.69 241.192 241.192 0 0 1-2.728 9.131l-.317.985-.443 1.349-.196.584-3.19-.653-4.37-.907-4.541-.962-1.279-.277c-2.078-.347-3.557-3.08-4.135-7.148l-.078-.604a26.193 26.193 0 0 1-.065-.623l-.052-.64-.038-.658c-.006-.11-.01-.222-.014-.335l-.018-.68a34.535 34.535 0 0 1 0-1.05l.018-.718c.012-.362.03-.73.054-1.1l.054-.75.033-.379.078-.765.092-.776c.084-.651.184-1.312.3-1.98l.15-.807a41.04 41.04 0 0 1 2.424-8.093l.293-.68c2.432-5.473 5.688-9.017 8.225-8.736z" fill="#444B75" fill-rule="nonzero"/>
                <path d="m63.97 142.08.116.012c15.583 2.662 28.55 13.892 33.479 29a1 1 0 0 1-1.902.62C90.965 157.31 78.6 146.601 63.75 144.064a1 1 0 0 1 .221-1.985zM112.265 173.747c4.563.76 6.463 9.948 4.31 20.593-2.155 10.646-7.605 18.63-12.167 17.87-4.562-.761-6.463-9.949-4.309-20.594 2.155-10.646 7.604-18.63 12.166-17.87z" fill="#444B75" fill-rule="nonzero"/>
                <path d="M49.885 40.14c22.39 3.813 42.759 8.14 51.2 9.986 2.949-1.317 5.32-2.354 7.87-2.479.98-.125 1.754-.047 2.33.098.247.057.523.132.824.221l-.126-.031c.205.05.406.11.604.18 1.355.43 3.092 1.088 4.855 1.771l.962.374c2.4.936 4.725 1.85 6.062 2.237 2.851.824 5.703 1.584 8.554 2.471 1.71.507 2.788 2.408 2.344 4.182-.365 1.584-1.785 2.524-3.302 2.425l-.183-.017c-2.851-.38-5.766-.76-8.617-1.14l-1.14-.15c2 3.687 4.43 8.325 7.603 14.09 1.9 3.928-3.232 7.223-6.97 2.534-1.656 1.472-4.617 1.52-5.668.315l-.098-.125c-.824-1.172-3.676-4.34-6.535-7.508l-.635-.703c-2.638-2.924-5.155-5.72-5.947-6.806-1.215-1.69-2.693-2.456-4.84-2.334 1.45 3.375 3.209 8.229 4.27 10.255a467.963 467.963 0 0 1 4.055 7.92c.824 1.584.127 3.675-1.457 4.563-1.402.792-3.096.412-4.013-.745l-.106-.143a491.726 491.726 0 0 0-5.07-7.096c-1.259-1.727-2.519-3.453-3.803-5.103-5.841 2.41-16.305 5.704-25.027 2.695-9.171-3.173-10.887-2.092-11.12-1.873l-.017.017a.159.159 0 0 0-.016.018s-3.091.762-6.56 1.519l-.598.13-1.206.255-.601.124c-.865.177-1.714.342-2.508.485-.662.28-1.321.38-1.96.275-3.865-.634-5.513-8.49-3.675-17.552 1.824-8.993 6.393-15.8 10.24-15.284l.025-.05z" fill="url(#c)" transform="translate(62 136.077)"/>
                <path d="M168.01 183.786c2.081-.624 4-.703 6.093-.196 1.399.345 2.622 1.085 3.829 2.304l.154.158.309.333c.052.057.103.115.155.175l.312.368c.105.127.21.258.317.394l.321.421.164.222.332.467.17.245.345.516.177.272.363.57.375.607.39.647.405.69.422.732.669 1.184.605 1.101 7.124 13.207 1.134 2.078c2.345 4.846-3.966 7.886-7.811 3.064a.5.5 0 1 1 .782-.624c3.158 3.961 7.909 1.673 6.141-1.981l-3.136-5.78-5.322-9.87-.612-1.102-.432-.764-.414-.718-.397-.676-.381-.634-.367-.594-.353-.556-.342-.52-.33-.486-.322-.453a24.343 24.343 0 0 0-.158-.215l-.31-.408c-.05-.065-.101-.13-.152-.193l-.301-.366-.149-.173-.295-.329-.293-.306c-1.084-1.094-2.148-1.737-3.356-2.036-1.913-.463-3.652-.392-5.568.183a.5.5 0 1 1-.287-.958z" fill="#CF744D" fill-rule="nonzero"/>
                <path d="m181.168 204.831-2.147-3.445-1.438-2.282-.827-1.293-.516-.8-.978-1.502-.685-1.034-.641-.955-.786-1.143-.362-.514-.34-.475-.472-.638-.286-.374-.135-.171c-.958-1.278-2.822-2.33-5.831-2.849a.5.5 0 1 1 .17-.985c3.124.538 5.179 1.651 6.32 3.053l.431.554.324.43.35.478.372.521.604.866.431.631.454.673.446.669.913 1.389.647.997 1.734 2.714 3.194 5.113 2.608 4.233.115.176c1.02 1.663.568 3.933-1.046 5.196-1.484 1.131-3.52 1.027-4.778-.23l-.655-.708-10.908-12.315-.677-.755-.19-.225a10.617 10.617 0 0 0-1.688-1.585 9.358 9.358 0 0 0-3.69-1.706.5.5 0 1 1 .21-.978c1.532.329 2.888.988 4.08 1.884.526.396.992.817 1.413 1.256l.223.239.29.331.152.182 2.03 2.269 9.44 10.67.572.624c.896 1.001 2.438 1.114 3.564.256 1.208-.945 1.55-2.638.814-3.867l-2.825-4.575z" fill="#CF744D" fill-rule="nonzero"/>
                <path d="M153.676 189.11a.5.5 0 0 1 .634-.312c3.144 1.066 4.998 2.506 5.913 4.154l.148.267.154.292.242.489.261.558.283.635.31.719.458 1.104.663 1.64 1.598 3.997.556 1.35.319.733.228.493.215.434.087.168c1.404 2.68 2.735 5.28 4.056 7.922.944 1.816.17 4.206-1.655 5.228-1.655.935-3.722.468-4.774-1.035l-1.36-1.93-1.289-1.811-1.23-1.714-.794-1.097-2.275-3.105-.762-1.023-.841-1.107-.62-.796-.455-.57-.616-.757a.5.5 0 1 1 .772-.635l.748.921.593.75.458.592.652.858 1.123 1.509 2.032 2.775 1.612 2.235 1.27 1.78 1.337 1.892.464.659c.757 1.082 2.256 1.42 3.464.738 1.365-.765 1.95-2.568 1.255-3.903a463.395 463.395 0 0 0-3.219-6.316l-.967-1.858-.27-.553-.296-.66-.359-.849-.94-2.321-1.447-3.623-.482-1.175-.323-.768-.295-.678-.269-.596-.167-.355-.235-.475-.147-.282-.142-.255c-.791-1.424-2.444-2.708-5.363-3.698a.5.5 0 0 1-.313-.634z" fill="#CF744D" fill-rule="nonzero"/>
            </g>
            <g>
                <path d="M67.593 256.692s69.955-8.428 126.983-3.929c41.06 3.295 95.048-1.14 95.048-1.14 18.883-24.65-35.675 61.907-70.842 61.907-35.928 0-34.027.95-34.027.95l-85.733 1.901-31.43-59.69z" fill="#000" fill-rule="nonzero"/>
                <path d="M305.845 229.635c-.19.57-.38 1.14-.633 1.774-11.47 22.051-20.847 38.272-35.041 46.7-14.637 8.681-26.93-.57-30.542-3.802-.444 2.218-1.394 3.929-2.978 4.69-1.838.886-4.119.443-6.527-1.078l-1.394.76-21.417-30.542 57.218-49.424h.507c3.866-4.182 9.188-6.907 15.271-7.477 13.75-1.268 26.297 9.378 28.008 23.698.633 5.26-.317 10.329-2.472 14.7z" fill="#36394C"/>
                <path d="M239.312 236.351s26.043 8.175 36.308 36.245c9.442 25.79-66.596-15.08-62.794-28.26 3.738-13.117 26.486-7.985 26.486-7.985z" fill-opacity=".15" fill="#000" fill-rule="nonzero"/>
                <path d="M292.919 342.424c32.126-33.71 32-43.848 19.833-52.149-5.703-3.612-15.334-7.287-17.425-11.152-1.711-3.168-1.14-3.485-3.739-5.26-1.774-.697-6.653-.19-8.237-.76-11.533-4.309-7.604 2.028-.634 12.736 13.877 21.418 2.661-4.372.063-1.584-6.78-1.774 1.585-5.512-5.069 5.83-6.4 10.962-26.55 9.505-16.348 13.877l21.924 20.91c-.063 0 .127 5.07 9.632 17.552z" fill="#1E2446"/>
                <path fill="#B3B3B3" d="m240.77 255.044 38.969 15.715-12.356 31.745-38.97-15.714z"/>
                <path d="M255.741 149.541c-5.64 4.943-13.75 7.224-17.299 12.103-2.344 3.232-6.146 8.808-3.104 21.48-5.893-7.223-8.428-10.961-8.428-10.961l-26.36-27.247c-1.077-.444-2.154-1.014-3.168-1.584-2.788-1.648-3.232-5.45-1.014-8.174 2.028-2.472 3.929-5.64 5.323-9.315.76-1.901 1.33-3.865 1.774-5.83.824-3.485 4.626-5.703 7.92-4.562 1.838.634 3.486 1.204 4.88 1.584 2.027-3.612-8.428-10.518-8.428-10.518s16.412 2.407 23.002 8.3c2.598 1.775 1.964 2.091 3.738 5.26 2.091 3.802 11.723 7.54 17.426 11.152 8.554 6.21 9.568 10.709 3.738 18.312z" fill="url(#d)" transform="translate(56.187 157.779)"/>
                <path d="M274.787 283.792a1 1 0 0 1 .726 1.214l-.092.339-.125.425-.15.483c-.31.967-.7 2.043-1.176 3.2-1.36 3.304-3.144 6.607-5.405 9.695-1.903 2.597-4.066 4.927-6.506 6.92a1 1 0 0 1-1.265-1.55c2.303-1.88 4.35-4.086 6.157-6.552 2.16-2.948 3.867-6.11 5.17-9.274a40.449 40.449 0 0 0 1.12-3.05l.118-.377.133-.448.081-.298a1 1 0 0 1 1.214-.727zM287.333 293.36a1 1 0 0 1 .726 1.214l-.092.339-.125.425-.15.483c-.31.968-.7 2.044-1.176 3.2-1.36 3.304-3.144 6.607-5.405 9.695-1.903 2.597-4.066 4.927-6.506 6.92a1 1 0 0 1-1.265-1.55c2.303-1.88 4.351-4.086 6.158-6.552 2.158-2.948 3.867-6.11 5.169-9.274.39-.947.718-1.836.99-2.649l.192-.597.151-.496.071-.25.048-.181a1 1 0 0 1 1.214-.726zM281.06 288.545a1 1 0 0 1 .726 1.213l-.06.227-.157.537-.15.483c-.31.968-.7 2.044-1.176 3.201-1.36 3.303-3.144 6.606-5.405 9.694-1.903 2.598-4.066 4.927-6.506 6.92a1 1 0 0 1-1.265-1.55c2.303-1.88 4.351-4.086 6.157-6.552 2.16-2.947 3.867-6.11 5.17-9.273.39-.948.718-1.837.99-2.65l.192-.596.19-.63.08-.298a1 1 0 0 1 1.214-.726z" fill="#FFF" fill-rule="nonzero"/>
                <path d="m65.755 244.97-8.174 30.16 85.543-45.305s-60.514-4.69-77.369 15.144z" fill="#35384C"/>
                <path d="M126.65 229.381c-11.09.064-26.044.824-38.78 4.119-6.147 8.681-11.723 19.833-10.962 31.429l48.537-25.726c1.014-3.485 1.52-6.844 1.204-9.822z" fill-opacity=".15" fill="#000" fill-rule="nonzero"/>
                <path d="M124.322 84.782c-10.455 13.497-53.48 68.815-73.25 72.617-.633.126-1.267.253-1.837.316a40.157 40.157 0 0 1-12.737 1.331C15.841 157.842-.634 142.064.38 122.801c.697-12.61 10.519-25.726 24.016-31.112l54.937-41.124s49.741 28.134 44.99 34.217z" fill="url(#e)" transform="translate(56.187 157.779)"/>
                <path d="M78.225 238.028a1 1 0 0 1 .821 1.045l-.014.116-4.753 26.491c-.974 5.304 4.798 9.429 9.47 6.86l.192-.108 53.48-31.493a1 1 0 0 1 1.112 1.659l-.097.065-53.478 31.49c-6.112 3.625-13.77-1.653-12.686-8.596l.04-.234 4.752-26.487a1 1 0 0 1 1.045-.822l.116.014z" fill="#41445E" fill-rule="nonzero"/>
                <path d="M146.482 283.558c-3.485-12.356 1.014-28.387 1.014-28.387l13.687 14.7c.063 0-8.871 7.794-14.7 13.687z" fill-opacity=".15" fill="#000" fill-rule="nonzero"/>
                <path fill="url(#f)" fill-rule="nonzero" d="m174.254.887 90.675-.443-47.08 81.93-90.612.444z" transform="translate(56.187 157.779)"/>
                <path d="M264.468 188.7c2.028 0 2.154 2.662.38 6.02-1.837 3.296-4.942 6.02-6.907 6.02-2.027 0-2.154-2.661-.38-6.02 1.838-3.358 4.943-6.02 6.907-6.02z" fill="#EDE7E8"/>
                <path d="M188.557 353.323c-29.845-18.186-36.815-26.043-37.576-33.457-1.267-12.8 8.048-18.059 14.701-24.078 2.281-2.028-.063-5.513 1.457-7.287 10.392-6.083 18.63 6.146 18.63 6.146s-8.111-6.59-5.07-3.168c5.07-1.901 8.111-5.133 17.806 5.386 9.315 10.075 11.66 12.483 4.499 9.568.19 11.85.063 13.433.063 13.433s-3.675 7.731-9.251 25.79c-.887 2.915-2.471 6.78-5.26 7.667z" fill="#1E2446"/>
                <path d="M136.615 190.919c2.725-7.477 4.435-15.398-.254-20.974-7.477-8.998-22.938-4.69-27.627-7.16-7.033-7.858-7.857-11.09-3.611-16.982 3.548-4.372 8.49-7.35 8.934-11.026.317-3.041-.317-3.358 1.267-5.132 10.392-6.083 16.348-8.745 16.348-8.745s-4.562 5.577-1.584 8.935c5.07-1.901 10.012-10.139 19.643.443 9.315 10.202 6.907 14.701.888 21.861l-11.09 30.162c.064-.063-.506 1.52-2.914 8.618z" fill="url(#g)" transform="translate(56.187 157.779)"/>
                <path d="M182.678 301.691c1.013-.027 2.407.053 4.051.33 2.53.426 5.038 1.231 7.388 2.51 4.694 2.553 8.226 6.697 10.095 12.693a1 1 0 0 1-1.91.596c-1.71-5.487-4.893-9.221-9.14-11.532-2.142-1.165-4.441-1.904-6.765-2.295a22.325 22.325 0 0 0-2.424-.276l-.481-.022a16.295 16.295 0 0 0-.216-.006l-.38-.002-.243.006a1 1 0 0 1-.22-1.984l.165-.015.08-.003zM186.48 294.087c1.013-.027 2.407.053 4.051.33 2.53.426 5.037 1.231 7.388 2.51 4.694 2.553 8.226 6.698 10.095 12.694a1 1 0 1 1-1.91.595c-1.71-5.487-4.893-9.221-9.141-11.532-2.141-1.165-4.44-1.904-6.764-2.295a22.325 22.325 0 0 0-2.424-.276l-.248-.013-.45-.014-.38-.002-.243.005a1 1 0 0 1-.22-1.984l.146-.014.1-.004z" fill="#FFF" fill-rule="nonzero"/>
                <path d="m228.793 285.396-21.227 24.649c0 .127-1.077-20.72-40.743-16.412-38.02 4.056 11.025-42.327 61.97-8.237z" fill="#000" fill-rule="nonzero"/>
                <path d="M191.045 99.673c3.169 3.105 4.12 10.582 1.965 18.503-2.598 9.568-8.681 16.158-13.56 14.764-.444-.127-.887-.38-1.331-.634l-10.519-4.309s-12.863 14.828-32.696 6.78c-14.194-5.766-21.1-13.433-43.088-37.005-12.103-1.584-21.988-11.406-23.065-24.015a25.59 25.59 0 0 1 23.762-27.88c6.336-.444 12.293 1.393 17.108 4.815l79.65 47.904c.507.19 1.014.507 1.458.887l.316.19z" fill="url(#h)" transform="translate(56.187 157.779)"/>
                <path d="M232.268 250.777a1 1 0 0 1 1.236-.686c5.575 1.593 7.533 11.025 4.809 21.056-2.72 10.02-9.2 17.064-14.8 15.464a1 1 0 0 1 .55-1.923c4.175 1.193 9.853-4.98 12.32-14.065 2.474-9.111.75-17.415-3.429-18.61a1 1 0 0 1-.686-1.236z" fill="#41445E" fill-rule="nonzero"/>
            </g>
            <g>
                <path d="M145.342 68.117c18.439 1.268 33.33 4.182 33.267 6.527-.064 2.344-19.517 14.764-37.956 13.18-24.776-2.155-28.958-15.398-28.895-17.742.064-2.345 15.145-3.232 33.584-1.965z" fill="#7481F0"/>
                <path d="M157.698 107.91c-.507-8.364-13.75-17.425-23.572-23-1.077-.508-2.09-1.078-3.041-1.522-15.588-8.11-14.638-10.582-12.927-11.532 3.549-1.964 11.913-2.535 26.423-1.52 14.511 1.013 24.27 3.801 25.853 4.625 9.315 4.816-1.457 9.758-3.675 13.053-2.915 4.309-6.59 10.709-9.061 19.897z" fill="#425ABF"/>
                <path d="M156.114 90.675c6.21 0 11.025 3.992 10.835 8.998-.19 4.943-5.386 8.998-11.596 8.998s-11.025-3.992-10.835-8.998c.19-5.006 5.386-8.998 11.596-8.998z" fill="#BFC9FF"/>
                <path d="M131.592 88.394c0 2.725 8.11 5.703 18.122 6.717 10.012 1.014 18.186-.317 18.186-3.042 0-.316-.127-.633-.317-.887h.19l-4.752-41.884-29.338-.507-2.028 38.906c0 .254-.063.507-.063.697z" fill="#CE7753"/>
                <path d="m159.219 129.074-58.93-40.173 11.533-19.073 1.647.317 6.97 8.237s36.499 16.285 37.259 29.592c1.774-6.717 4.942-13.497 8.237-18.44l8.428-14.256 4.182-.57 5.006 16.094c2.281 14.447-24.332 38.272-24.332 38.272z" fill="#5E75F9"/>
                <path d="M182.554 86.517a1 1 0 0 1 .846 1.133c-.095.656-.465 1.813-1.286 3.43-1.331 2.621-3.465 5.62-6.576 8.958a1 1 0 1 1-1.463-1.364c2.987-3.204 5.012-6.05 6.256-8.499.373-.735.648-1.382.841-1.94l.121-.371.066-.23.054-.227.008-.043a1 1 0 0 1 1.016-.857l.117.01zM102.456 88c1.96-.1 4.481.008 7.36.488 4.268.711 8.477 2.118 12.42 4.385.698.402 1.384.829 2.057 1.281a1 1 0 0 1-1.117 1.66 32.486 32.486 0 0 0-1.938-1.207c-3.722-2.14-7.706-3.472-11.75-4.146-2.557-.426-4.808-.543-6.582-.48l-.461.022-.286.02a1 1 0 0 1-.191-1.99l.357-.026.13-.007z" fill="#444B75" fill-rule="nonzero"/>
                <path d="M148.066 107.594c1.268 0 2.282 1.457 2.282 3.231 0 1.775-1.014 3.232-2.282 3.232-1.267 0-2.28-1.457-2.28-3.232 0-1.774 1.013-3.231 2.28-3.231zM167.646 107.594c1.268 0 2.281 1.457 2.281 3.231 0 1.775-1.013 3.232-2.28 3.232-1.268 0-2.282-1.457-2.282-3.232 0-1.774 1.077-3.231 2.281-3.231z" fill="#425ABF"/>
                <path d="M168.182 109.754a1 1 0 0 1 .41 1.353l-.226.448-.27.568-.273.604-.142.325-.297.696-.153.37c-1.038 2.535-2.079 5.55-3.05 9.035-1.337 4.791-2.435 10.087-3.211 15.878-1.125 8.29-.533 16.336 1.445 25.789.656.32 1.113.994 1.113 1.767 0 .468-.168.9-.446 1.24.334 1.45.701 2.938 1.097 4.465a1 1 0 0 1-1.936.502l-.431-1.693c-.219-.875-.427-1.737-.626-2.588a1.975 1.975 0 0 1-1.587-1.926c0-.648.32-1.227.81-1.585-1.984-9.561-2.573-17.752-1.421-26.239.788-5.881 1.905-11.268 3.266-16.148.993-3.561 2.059-6.65 3.126-9.255l.16-.385.308-.723.294-.663.14-.308.289-.607.257-.51a1 1 0 0 1 1.354-.41z" fill="#FFF" fill-rule="nonzero"/>
                <path d="m148.3 109.663.237.062.294.087.167.053.37.126.416.154a15.99 15.99 0 0 1 3.19 1.645c5.963 4.01 6.941 10.672.007 20.022l-.25.335c-7.282 9.665-9.683 20.027-7.812 28.868.66.317 1.12.994 1.12 1.77 0 .407-.127.786-.342 1.101a25.697 25.697 0 0 0 1.975 4.493 1 1 0 1 1-1.746.977 27.792 27.792 0 0 1-2.055-4.618 1.975 1.975 0 0 1-1.76-1.953c0-.646.318-1.223.805-1.582-1.874-9.222.579-19.9 7.888-29.817l.33-.444c6.532-8.633 5.782-14.09.724-17.493a14.015 14.015 0 0 0-2.79-1.437c-.25-.096-.486-.178-.704-.249l-.443-.133-.087-.022a1 1 0 1 1 .465-1.945z" fill="#FFF"/>
                <g>
                    <path d="M168.217 76.355c-1.838 1.71-4.12 2.851-6.527 3.358-2.408.507-4.88.444-7.224-.317-6.463-2.154-15.524-7.35-19.833-20.15-9.505 2.915-15.778-11.342-9.948-15.144 3.612-2.344 8.3.19 10.708 2.851.127.127.38.444.444.57.254-7.73-8.11-15.84-3.548-20.213 24.332-23.001 39.856-5.45 43.215-2.09 1.14 5.005 1.33 10.264 2.344 18.122 2.154 16.284-3.739 27.627-9.631 33.013zm-32.824-29.402c-.063-.126-.063-.126 0 0z" fill="#E28F6B"/>
                    <path d="M166.696 34.724c.633-1.647 6.526-2.915 9.885.634M144.391 37.385c-.19.76 3.612-6.273 14.194-3.675" stroke="#000" stroke-linecap="round" stroke-linejoin="round"/>
                    <path d="M128.212 48.416a.5.5 0 1 1 .93.37l-.058.157-.033.105-.075.256a8.118 8.118 0 0 0-.039.15c-.21.842-.28 1.71-.13 2.502.313 1.672 1.541 2.747 4.1 2.99a.5.5 0 1 1-.096.996c-2.993-.285-4.59-1.682-4.988-3.801-.18-.955-.098-1.959.144-2.929.045-.18.09-.34.132-.473l.08-.233c.011-.033.023-.063.033-.09z" fill="#CF744D" fill-rule="nonzero"/>
                    <path d="M125.705 46.331a.5.5 0 0 1 .597-.232l.082.037 8.238 4.562a.5.5 0 0 1-.402.911l-.083-.036-8.237-4.562a.5.5 0 0 1-.195-.68z" fill="#CF744D" fill-rule="nonzero"/>
                    <path d="M151.742 38.906c.95-.063 1.774 1.267 1.774 2.915 0 1.647-.824 2.978-1.774 3.041-.95.064-1.775-1.267-1.775-2.914 0-1.648.824-3.042 1.775-3.042zM171.385 38.336c.95-.064 1.774 1.267 1.774 2.915 0 1.647-.824 2.978-1.774 3.041-.95.063-1.774-1.267-1.774-2.915 0-1.647.76-3.041 1.774-3.041z" fill="#000" fill-rule="nonzero"/>
                    <path d="M164.858 60.704s-6.59 1.014-10.582-3.485" stroke="#000" stroke-linecap="round" stroke-linejoin="round"/>
                    <path d="M133.683 60.26c-5.196 14.828 8.364 25.03 25.472 27.944 12.863 2.218 18.25-5.64 17.172-12.673 2.028-1.394 6.21-6.653 6.083-11.216-.126-7.984-2.027-6.843-3.295-9.568.95-4.815-.126-6.78-.95-9.25 0 1.837-.507 8.49-1.648 11.848 0 0 1.14-9.378-8.11-5.83-1.775 3.676-7.858 4.246-10.012-.57-11.279-8.554-12.736 4.12-13.623 5.577-6.97-.697-8.428-16.475-8.428-16.475s-2.788 3.611-3.042 1.204c2.535 11.595 2.915 11.849.38 19.01zm28.577-2.218c.887.19 1.711.317 2.471.444 3.295 1.204 9.062 3.929 2.218 6.907-7.16 1.52-16.221-.317-18.63-5.07-.062 0 6.21-3.738 13.941-2.28z" fill="#543222"/>
                    <path d="M181.206 28.324c-.697 11.026-3.358 15.651-3.358 15.651l-1.71-13.053c-3.042 2.218-13.688-1.584-23.826-5.26-10.455-3.801-15.651-.57-15.144 12.294.19 5.069.76 11.722.76 11.722-1.584-.697-2.598-5.386-9.061-6.273 2.408-7.984-11.089-28.197 2.725-27.564-2.788-17.805 19.326-7.477 19.326-7.477S156.62.127 165.302 0c8.11-.127 14.384 6.4 13.37 14.13 5.956-.253 10.645.95 2.534 14.194z" fill="#75452E"/>
                    <path d="M164.731 39.54s-.253 3.295 2.408 8.744c2.408 4.943-.887 7.414-6.4 5.83" stroke="#000" stroke-linecap="round" stroke-linejoin="round"/>
                    <path d="M175.884 31.366c-3.422 1.267-11.216-.634-23.572-5.767-10.265-4.245-15.651-.57-15.144 12.293.126 2.978 1.204 12.103 1.204 12.99-1.838-1.457-4.246-6.717-9.442-7.54 2.408-7.984-11.089-28.198 2.725-27.564-.38-2.408-.444-3.802-.19-5.766.443-1.394 4.499-8.681 16.348 6.146 8.428 10.519 20.72 16.158 28.07 15.208zm5.322-3.042c-.697 11.026-3.358 15.651-3.358 15.651l-1.014-7.794v-4.815c1.584-.76 3.105-1.648 4.562-3.485-.063.126-.126.253-.19.443z" fill="#543222"/>
                </g>
            </g>
        </g>
        <g transform="translate(267 84)">
            <rect fill="#27315F" width="234" height="100" rx="6"/>
            <g transform="translate(16 16)">
                <mask id="j" fill="#fff">
                    <use xlink:href="#i"/>
                </mask>
                <use fill="#485590" xlink:href="#i"/>
                <g mask="url(#j)" fill-rule="nonzero">
                    <g transform="translate(7 9)">
                        <path d="M3.599 9.874A12.642 12.642 0 0 1 2.502 4.85C2.502 3.296 4.636.118 8.5.118c3.864 0 5.998 3.01 5.998 4.878a12.694 12.694 0 0 1-1.064 4.878H3.599zM4.849 10.625c-2.266 0-3.738 3.61-1.974 5.328 2.503-.498 3.751-3.55 1.974-5.328zM12.17 10.625c2.266 0 3.739 3.61 1.973 5.328-2.504-.498-3.75-3.55-1.973-5.328z" fill="#87304B"/>
                        <path d="M8.49 15.899c-2.084 0-4.83 1.545-6.284 3.408a.605.605 0 0 0 .014.772c2.105 2.454 10.625 2.442 12.568 0a.605.605 0 0 0 0-.745c-1.458-1.886-4.215-3.435-6.298-3.435z" fill="#993434"/>
                        <ellipse fill="#E57E5A" transform="rotate(-45 14.498 9.873)" cx="14.498" cy="9.873" rx="1.93" ry="1.404"/>
                        <ellipse fill="#E57E5A" transform="rotate(-45 2.502 9.874)" cx="2.502" cy="9.874" rx="1.404" ry="1.93"/>
                        <path d="M3.298 9.804c-.356-.365-.86-.755-1.382-.755a.245.245 0 1 0 0 .49c.54 0 1.194.752 1.445 1.1.094.131.198.256.31.372a4.714 4.714 0 0 1-.122-.92 3.19 3.19 0 0 0-.251-.287zM13.418 10.092c-.01.31-.05.618-.121.92.113-.118.218-.243.313-.375.25-.348.906-1.1 1.445-1.1a.245.245 0 0 0 0-.49c-.524 0-1.026.386-1.382.755a3.19 3.19 0 0 0-.255.29z" fill="#CC6436"/>
                        <path d="M10.445 16.277c-.24-.06-.483-.17-.73-.208v-3.195a1.227 1.227 0 0 0-2.451 0v3.195c-.234.037-.464.143-.69.193 0 .075.858 1.267 1.932 1.267 1.074 0 1.947-1.18 1.94-1.252z" fill="#E57E5A"/>
                        <path d="M13.438 6.64c-1.038-.348-2.751-1.886-3.54-3.65-1.044 1.722-4.773 3.35-6.355 3.67v2.711c0 .897-.209 5.18 4.959 5.18 5.168 0 4.938-4.477 4.938-5.216l-.002-2.695z" fill="#FF9566"/>
                        <circle fill="#6B1818" cx="6.406" cy="8.309" r="1"/>
                        <circle fill="#6B1818" cx="10.575" cy="8.309" r="1"/>
                        <path d="M7.677 6.302a.245.245 0 0 0-.245-.246c-.644 0-1.758.21-2.226.678a.245.245 0 1 0 .346.346c.315-.315 1.242-.533 1.88-.533.135 0 .245-.11.245-.245zM9.547 6.056a.245.245 0 0 0 0 .49c.636 0 1.565.22 1.88.534a.245.245 0 0 0 .346-.348c-.466-.465-1.583-.676-2.226-.676zM9.916 11.355a.247.247 0 0 0-.34.058c-.012.016-.294.387-1.086.387s-1.207-.4-1.226-.42a.245.245 0 0 0-.362.333c.022.023.541.58 1.586.58 1.046 0 1.474-.58 1.49-.605a.243.243 0 0 0-.062-.333z" fill="#6B1818"/>
                    </g>
                </g>
            </g>
            <path d="M64.146 27v-1.332h-4.368v-6.9h-1.536V27h5.904zm3.816.144c.824 0 1.492-.198 2.004-.594.512-.396.768-.982.768-1.758h-1.416c0 .4-.124.702-.372.906-.248.204-.572.306-.972.306-.536 0-.926-.146-1.17-.438-.244-.292-.378-.75-.402-1.374h4.332v-.432c0-1.104-.23-1.916-.69-2.436-.46-.52-1.154-.78-2.082-.78-1.016 0-1.774.268-2.274.804s-.75 1.368-.75 2.496.248 1.96.744 2.496 1.256.804 2.28.804zm1.272-3.972h-2.808c.056-.504.206-.878.45-1.122.244-.244.606-.366 1.086-.366.848 0 1.272.496 1.272 1.488zm4.188-3.432v-1.416h-1.416v1.416h1.416zm.024 7.26v-6.312h-1.44V27h1.44zm3.204.144c.872 0 1.544-.288 2.016-.864h.084c.072.264.212.472.42.624.208.152.468.228.78.228.344 0 .644-.06.9-.18v-.984h-.384a.447.447 0 0 1-.3-.102c-.08-.068-.12-.174-.12-.318v-3.012c0-.64-.21-1.132-.63-1.476-.42-.344-1.05-.516-1.89-.516-.776 0-1.398.156-1.866.468-.468.312-.702.74-.702 1.284 0 .128.004.216.012.264h1.392v-.168c0-.2.088-.368.264-.504.176-.136.476-.204.9-.204.408 0 .69.084.846.252.156.168.234.404.234.708v.528c-1.264 0-2.24.164-2.928.492-.688.328-1.032.896-1.032 1.704 0 .68.206 1.146.618 1.398.412.252.874.378 1.386.378zm.432-1.152c-.64 0-.96-.256-.96-.768 0-.392.22-.662.66-.81.44-.148 1.048-.222 1.824-.222v.288c0 .464-.136.832-.408 1.104-.272.272-.644.408-1.116.408zm11.868 1.152c1.32 0 2.342-.356 3.066-1.068.724-.712 1.086-1.776 1.086-3.192 0-1.416-.362-2.48-1.086-3.192-.724-.712-1.746-1.068-3.066-1.068-1.32 0-2.34.356-3.06 1.068-.72.712-1.08 1.776-1.08 3.192 0 1.416.36 2.48 1.08 3.192.72.712 1.74 1.068 3.06 1.068zm0-1.296c-.84 0-1.478-.238-1.914-.714-.436-.476-.654-1.182-.654-2.118v-.252c0-.936.22-1.644.66-2.124.44-.48 1.076-.72 1.908-.72.84 0 1.48.24 1.92.72.44.48.66 1.188.66 2.124v.252c0 .936-.218 1.642-.654 2.118-.436.476-1.078.714-1.926.714zM95.898 27v-3.288c0-1.136.508-1.704 1.524-1.704h.456v-1.356a1.573 1.573 0 0 0-.6-.108c-.656 0-1.128.38-1.416 1.14h-.084l-.132-.996h-1.188V27h1.44zm6.876 2.184c.44 0 .83-.084 1.17-.252.34-.168.602-.398.786-.69.184-.292.276-.614.276-.966 0-.472-.152-.862-.456-1.17-.304-.308-.692-.462-1.164-.462h-2.76a.532.532 0 0 1-.36-.114.37.37 0 0 1-.132-.294c0-.128.048-.228.144-.3a.647.647 0 0 1 .396-.108h.984c.84 0 1.492-.192 1.956-.576.464-.384.696-.908.696-1.572a1.93 1.93 0 0 0-.624-1.464c.408-.088.728-.268.96-.54.232-.272.348-.616.348-1.032h-1.392a1.315 1.315 0 0 1-.204.57c-.12.196-.308.37-.564.522-.352-.128-.768-.192-1.248-.192-.856 0-1.522.19-1.998.57-.476.38-.714.902-.714 1.566 0 .36.078.684.234.972.156.288.378.524.666.708-.304.072-.562.2-.774.384a.882.882 0 0 0-.318.696c0 .216.056.404.168.564a1.3 1.3 0 0 0 .456.396c-.656.296-.984.732-.984 1.308 0 .464.158.826.474 1.086.316.26.698.39 1.146.39h2.832zm-1.176-5.376c-.424 0-.744-.096-.96-.288-.216-.192-.324-.472-.324-.84 0-.36.108-.638.324-.834.216-.196.536-.294.96-.294.424 0 .744.098.96.294.216.196.324.474.324.834s-.108.638-.324.834c-.216.196-.536.294-.96.294zm1.176 4.332h-2.328a.683.683 0 0 1-.486-.174.603.603 0 0 1-.186-.462c0-.184.062-.336.186-.456a.67.67 0 0 1 .486-.18h2.424c.208 0 .376.056.504.168.128.112.192.268.192.468a.552.552 0 0 1-.228.462.902.902 0 0 1-.564.174zm4.764-.996c.872 0 1.544-.288 2.016-.864h.084c.072.264.212.472.42.624.208.152.468.228.78.228.344 0 .644-.06.9-.18v-.984h-.384a.447.447 0 0 1-.3-.102c-.08-.068-.12-.174-.12-.318v-3.012c0-.64-.21-1.132-.63-1.476-.42-.344-1.05-.516-1.89-.516-.776 0-1.398.156-1.866.468-.468.312-.702.74-.702 1.284 0 .128.004.216.012.264h1.392v-.168c0-.2.088-.368.264-.504.176-.136.476-.204.9-.204.408 0 .69.084.846.252.156.168.234.404.234.708v.528c-1.264 0-2.24.164-2.928.492-.688.328-1.032.896-1.032 1.704 0 .68.206 1.146.618 1.398.412.252.874.378 1.386.378zm.432-1.152c-.64 0-.96-.256-.96-.768 0-.392.22-.662.66-.81.44-.148 1.048-.222 1.824-.222v.288c0 .464-.136.832-.408 1.104-.272.272-.644.408-1.116.408zM114.114 27v-3.672c0-.448.136-.816.408-1.104a1.331 1.331 0 0 1 1.008-.432c.384 0 .674.092.87.276.196.184.294.492.294.924V27h1.44v-4.26c0-.768-.18-1.326-.54-1.674-.36-.348-.86-.522-1.5-.522-.44 0-.83.086-1.17.258-.34.172-.626.414-.858.726h-.084l-.12-.84h-1.188V27h1.44zm7.2.144c.872 0 1.544-.288 2.016-.864h.084c.072.264.212.472.42.624.208.152.468.228.78.228.344 0 .644-.06.9-.18v-.984h-.384a.447.447 0 0 1-.3-.102c-.08-.068-.12-.174-.12-.318v-3.012c0-.64-.21-1.132-.63-1.476-.42-.344-1.05-.516-1.89-.516-.776 0-1.398.156-1.866.468-.468.312-.702.74-.702 1.284 0 .128.004.216.012.264h1.392v-.168c0-.2.088-.368.264-.504.176-.136.476-.204.9-.204.408 0 .69.084.846.252.156.168.234.404.234.708v.528c-1.264 0-2.24.164-2.928.492-.688.328-1.032.896-1.032 1.704 0 .68.206 1.146.618 1.398.412.252.874.378 1.386.378zm.432-1.152c-.64 0-.96-.256-.96-.768 0-.392.22-.662.66-.81.44-.148 1.048-.222 1.824-.222v.288c0 .464-.136.832-.408 1.104-.272.272-.644.408-1.116.408z" fill="#FFF" fill-rule="nonzero"/>
            <path d="M60.128 41c.368 0 .685-.072.952-.216.267-.144.468-.339.604-.584.136-.245.204-.517.204-.816 0-.304-.077-.573-.232-.808a1.448 1.448 0 0 0-.576-.52c.187-.09.35-.236.488-.436.139-.2.208-.45.208-.748 0-.437-.144-.792-.432-1.064-.288-.272-.715-.408-1.28-.408H57.88a.166.166 0 0 0-.128.052.198.198 0 0 0-.048.14v5.224c0 .053.016.097.048.132a.166.166 0 0 0 .128.052h2.248zm-.184-3.224h-1.488v-1.744h1.488c.352 0 .617.072.796.216.179.144.268.355.268.632 0 .283-.09.503-.272.66-.181.157-.445.236-.792.236zm.08 2.592h-1.568V38.4h1.568c.341 0 .61.09.804.272a.928.928 0 0 1 .292.712.931.931 0 0 1-.292.708c-.195.184-.463.276-.804.276zm4.064.712c.352 0 .64-.059.864-.176a1.35 1.35 0 0 0 .512-.44v.352c0 .053.016.097.048.132a.166.166 0 0 0 .128.052h.352a.179.179 0 0 0 .184-.184v-2.6c0-.416-.13-.763-.388-1.04-.259-.277-.687-.416-1.284-.416-.347 0-.64.06-.88.18s-.417.261-.532.424c-.115.163-.172.305-.172.428 0 .048.017.09.052.124a.17.17 0 0 0 .124.052h.312a.16.16 0 0 0 .1-.028.259.259 0 0 0 .068-.108.943.943 0 0 1 .328-.348c.15-.099.347-.148.592-.148.635 0 .952.275.952.824v.232l-1.2.168c-.496.075-.888.224-1.176.448a1.047 1.047 0 0 0-.432.864c0 .224.065.428.196.612.13.184.307.33.528.436.221.107.463.16.724.16zm.16-.584c-.245 0-.457-.059-.636-.176a.567.567 0 0 1-.268-.504c0-.192.099-.352.296-.48.197-.128.488-.219.872-.272l.936-.136v.224c0 .437-.112.77-.336 1-.224.23-.512.344-.864.344zM69 41.08c.384 0 .708-.07.972-.208.264-.139.461-.31.592-.512a1.23 1.23 0 0 0 .212-.6.147.147 0 0 0-.052-.128.19.19 0 0 0-.132-.056h-.352c-.053 0-.093.012-.12.036a.377.377 0 0 0-.08.132c-.096.261-.227.447-.392.556-.165.11-.379.164-.64.164-.336 0-.603-.104-.8-.312-.197-.208-.304-.525-.32-.952l-.008-.28.008-.28c.016-.427.123-.744.32-.952.197-.208.464-.312.8-.312.256 0 .468.055.636.164.168.11.3.295.396.556a.377.377 0 0 0 .08.132c.027.024.067.036.12.036h.352a.19.19 0 0 0 .132-.056.147.147 0 0 0 .052-.128 1.238 1.238 0 0 0-.212-.608 1.497 1.497 0 0 0-.592-.508c-.264-.136-.588-.204-.972-.204-.57 0-1.016.161-1.336.484-.32.323-.488.775-.504 1.356l-.008.32.008.32c.016.581.184 1.033.504 1.356.32.323.765.484 1.336.484zm3.272-.08a.179.179 0 0 0 .184-.184v-1.664l1.808 1.712a.68.68 0 0 0 .148.112.444.444 0 0 0 .172.024h.392a.15.15 0 0 0 .116-.048.17.17 0 0 0 .044-.12c0-.043-.03-.093-.088-.152l-2.072-1.984 1.872-1.536c.059-.053.088-.104.088-.152a.168.168 0 0 0-.044-.124.157.157 0 0 0-.116-.044h-.4c-.07 0-.12.008-.152.024a1.448 1.448 0 0 0-.168.112l-1.6 1.32v-2.792a.179.179 0 0 0-.184-.184h-.344a.187.187 0 0 0-.132.048.176.176 0 0 0-.052.136v5.312a.179.179 0 0 0 .184.184h.344zm5.76-2.08a.187.187 0 0 0 .132-.048.166.166 0 0 0 .052-.128v-.288a.179.179 0 0 0-.184-.184h-2.4a.179.179 0 0 0-.184.184v.288c0 .053.017.096.052.128a.187.187 0 0 0 .132.048h2.4zm2.984 2.16c.341 0 .644-.06.908-.18s.468-.263.612-.428c.144-.165.216-.307.216-.424a.125.125 0 0 0-.052-.104.197.197 0 0 0-.124-.04h-.352a.33.33 0 0 0-.136.02.416.416 0 0 0-.112.116c-.08.107-.199.21-.356.308-.157.099-.361.148-.612.148a.956.956 0 0 1-.784-.368 1.486 1.486 0 0 1-.32-.888v-.072h2.776a.179.179 0 0 0 .184-.184v-.144c0-.64-.161-1.147-.484-1.52-.323-.373-.777-.56-1.364-.56-.544 0-.979.17-1.304.512-.325.341-.504.8-.536 1.376l-.008.264.008.272c.032.587.21 1.05.536 1.388.325.339.76.508 1.304.508zm1.12-2.456h-2.232V38.6c0-.373.099-.677.296-.912.197-.235.47-.352.816-.352.341 0 .613.117.816.352.203.235.304.539.304.912v.024zM84.392 41a.179.179 0 0 0 .184-.184V38.6c0-.379.101-.676.304-.892.203-.216.475-.324.816-.324.347 0 .613.107.8.32.187.213.28.512.28.896v2.216a.179.179 0 0 0 .184.184h.368a.179.179 0 0 0 .184-.184v-2.264c0-.539-.141-.972-.424-1.3-.283-.328-.68-.492-1.192-.492-.315 0-.577.053-.788.16-.21.107-.396.259-.556.456v-.352c0-.059-.016-.104-.048-.136-.032-.032-.077-.048-.136-.048h-.344a.179.179 0 0 0-.184.184v3.792a.179.179 0 0 0 .184.184h.368zm5.8.08c.576 0 1.016-.203 1.32-.608v.344c0 .053.016.097.048.132a.166.166 0 0 0 .128.052h.344a.179.179 0 0 0 .184-.184v-5.312a.179.179 0 0 0-.184-.184h-.36a.179.179 0 0 0-.184.184v1.848c-.31-.395-.741-.592-1.296-.592s-.973.183-1.256.548c-.283.365-.435.823-.456 1.372l-.008.24.008.24c.021.555.172 1.013.452 1.376s.7.544 1.26.544zm.152-.624c-.757 0-1.136-.512-1.136-1.536l.008-.232c.016-.39.112-.704.288-.944s.456-.36.84-.36c.363 0 .641.119.836.356.195.237.297.519.308.844.005.059.008.163.008.312 0 .144-.003.245-.008.304a1.554 1.554 0 0 1-.304.884c-.187.248-.467.372-.84.372zM97.52 41c.539 0 .97-.077 1.296-.232.325-.155.564-.39.716-.708.152-.317.233-.73.244-1.236.005-.16.008-.37.008-.632 0-.261-.003-.47-.008-.624-.01-.725-.195-1.268-.552-1.628-.357-.36-.939-.54-1.744-.54h-1.808a.166.166 0 0 0-.128.052.198.198 0 0 0-.048.14v5.224c0 .053.016.097.048.132a.166.166 0 0 0 .128.052h1.848zm-.04-.664h-1.232v-4.28h1.192c.555 0 .953.124 1.196.372s.37.639.38 1.172c.01.31.016.507.016.592 0 .08-.005.28-.016.6-.01.379-.065.679-.164.9a.952.952 0 0 1-.48.488c-.221.104-.519.156-.892.156zm5.064.744c.341 0 .644-.06.908-.18s.468-.263.612-.428c.144-.165.216-.307.216-.424a.125.125 0 0 0-.052-.104.197.197 0 0 0-.124-.04h-.352a.33.33 0 0 0-.136.02.416.416 0 0 0-.112.116c-.08.107-.199.21-.356.308-.157.099-.361.148-.612.148a.956.956 0 0 1-.784-.368 1.486 1.486 0 0 1-.32-.888v-.072h2.776a.179.179 0 0 0 .184-.184v-.144c0-.64-.161-1.147-.484-1.52-.323-.373-.777-.56-1.364-.56-.544 0-.979.17-1.304.512-.325.341-.504.8-.536 1.376l-.008.264.008.272c.032.587.21 1.05.536 1.388.325.339.76.508 1.304.508zm1.12-2.456h-2.232V38.6c0-.373.099-.677.296-.912.197-.235.47-.352.816-.352.341 0 .613.117.816.352.203.235.304.539.304.912v.024zM106.992 41c.139 0 .237-.067.296-.2l1.48-3.712.016-.08a.163.163 0 0 0-.048-.12.154.154 0 0 0-.112-.048h-.368a.197.197 0 0 0-.124.04.189.189 0 0 0-.068.088l-1.232 3.192-1.232-3.192c-.043-.085-.107-.128-.192-.128h-.368a.154.154 0 0 0-.112.048.163.163 0 0 0-.048.12.28.28 0 0 0 .008.08l1.488 3.712c.059.133.157.2.296.2h.32zm4.144.08c.341 0 .644-.06.908-.18s.468-.263.612-.428c.144-.165.216-.307.216-.424a.125.125 0 0 0-.052-.104.197.197 0 0 0-.124-.04h-.352a.33.33 0 0 0-.136.02.416.416 0 0 0-.112.116c-.08.107-.199.21-.356.308-.157.099-.361.148-.612.148a.956.956 0 0 1-.784-.368 1.486 1.486 0 0 1-.32-.888v-.072h2.776a.179.179 0 0 0 .184-.184v-.144c0-.64-.161-1.147-.484-1.52-.323-.373-.777-.56-1.364-.56-.544 0-.979.17-1.304.512-.325.341-.504.8-.536 1.376l-.008.264.008.272c.032.587.21 1.05.536 1.388.325.339.76.508 1.304.508zm1.12-2.456h-2.232V38.6c0-.373.099-.677.296-.912.197-.235.47-.352.816-.352.341 0 .613.117.816.352.203.235.304.539.304.912v.024zM114.504 41a.179.179 0 0 0 .184-.184v-5.312a.179.179 0 0 0-.184-.184h-.352a.187.187 0 0 0-.132.048.176.176 0 0 0-.052.136v5.312a.179.179 0 0 0 .184.184h.352zm3.072.08c.587 0 1.039-.165 1.356-.496.317-.33.487-.77.508-1.32a3.8 3.8 0 0 0 0-.688c-.021-.55-.193-.99-.516-1.32-.323-.33-.772-.496-1.348-.496-.576 0-1.025.165-1.348.496-.323.33-.495.77-.516 1.32l-.008.344.008.344c.021.55.19.99.508 1.32.317.33.77.496 1.356.496zm0-.6c-.341 0-.612-.108-.812-.324-.2-.216-.308-.527-.324-.932l-.008-.304.008-.304c.016-.405.124-.716.324-.932.2-.216.47-.324.812-.324.341 0 .612.108.812.324.2.216.308.527.324.932.005.053.008.155.008.304 0 .15-.003.25-.008.304-.016.405-.124.716-.324.932-.2.216-.47.324-.812.324zm3.44 2.04a.179.179 0 0 0 .184-.184v-1.864c.293.405.725.608 1.296.608.56 0 .98-.179 1.26-.536.28-.357.428-.808.444-1.352.005-.059.008-.15.008-.272 0-.123-.003-.213-.008-.272-.016-.55-.164-1.001-.444-1.356-.28-.355-.7-.532-1.26-.532-.57 0-1.01.205-1.32.616v-.352c0-.059-.016-.104-.048-.136-.032-.032-.077-.048-.136-.048h-.336a.187.187 0 0 0-.132.048.176.176 0 0 0-.052.136v5.312c0 .059.017.104.052.136a.187.187 0 0 0 .132.048h.36zm1.328-2.064c-.363 0-.641-.119-.836-.356a1.363 1.363 0 0 1-.308-.844 4.042 4.042 0 0 1-.008-.312v-.104c.002-.095.004-.164.008-.208.01-.336.11-.628.3-.876s.47-.372.844-.372c.757 0 1.136.512 1.136 1.536 0 .101-.003.179-.008.232-.016.39-.112.704-.288.944s-.456.36-.84.36zm4.52.624c.341 0 .644-.06.908-.18s.468-.263.612-.428c.144-.165.216-.307.216-.424a.125.125 0 0 0-.052-.104.197.197 0 0 0-.124-.04h-.352a.33.33 0 0 0-.136.02.416.416 0 0 0-.112.116c-.08.107-.199.21-.356.308-.157.099-.361.148-.612.148a.956.956 0 0 1-.784-.368 1.486 1.486 0 0 1-.32-.888v-.072h2.776a.179.179 0 0 0 .184-.184v-.144c0-.64-.161-1.147-.484-1.52-.323-.373-.777-.56-1.364-.56-.544 0-.979.17-1.304.512-.325.341-.504.8-.536 1.376l-.008.264.008.272c.032.587.21 1.05.536 1.388.325.339.76.508 1.304.508zm1.12-2.456h-2.232V38.6c0-.373.099-.677.296-.912.197-.235.47-.352.816-.352.341 0 .613.117.816.352.203.235.304.539.304.912v.024zM130.232 41a.193.193 0 0 0 .136-.052.172.172 0 0 0 .056-.132v-2.36c0-.293.084-.525.252-.696.168-.17.399-.256.692-.256h.456a.176.176 0 0 0 .136-.052.187.187 0 0 0 .048-.132v-.296c0-.059-.016-.104-.048-.136-.032-.032-.077-.048-.136-.048h-.312c-.523 0-.893.181-1.112.544v-.352a.19.19 0 0 0-.052-.14.19.19 0 0 0-.14-.052h-.336a.172.172 0 0 0-.132.056.193.193 0 0 0-.052.136v3.784a.179.179 0 0 0 .184.184h.36z" fill="#667DFF" fill-rule="nonzero"/>
            <rect fill="#344389" x="16" y="60" width="71" height="4" rx="2"/>
            <rect fill="#344389" x="16" y="70" width="41" height="4" rx="2"/>
            <rect fill="#344389" x="16" y="80" width="23" height="4" rx="2"/>
            <rect fill="#344389" x="89" y="60" width="34" height="4" rx="2"/>
            <rect fill="#344389" x="59" y="70" width="15" height="4" rx="2"/>
            <rect fill="#344389" x="41" y="80" width="33" height="4" rx="2"/>
            <rect fill="#344389" x="125" y="60" width="54" height="4" rx="2"/>
            <rect fill="#344389" x="76" y="70" width="54" height="4" rx="2"/>
            <rect fill="#344389" x="76" y="80" width="7" height="4" rx="2"/>
            <rect fill="#344389" x="181" y="60" width="29" height="4" rx="2"/>
            <rect fill="#344389" x="132" y="70" width="39" height="4" rx="2"/>
            <rect fill="#344389" x="87" y="80" width="90" height="4" rx="2"/>
        </g>
        <path d="M400 141h101v43H392v-35a8 8 0 0 1 8-8z" fill="#000" opacity=".137"/>
        <g transform="translate(410 149)">
            <rect fill="#2B3770" width="234" height="100" rx="6"/>
            <g transform="translate(16 16)">
                <mask id="l" fill="#fff">
                    <use xlink:href="#k"/>
                </mask>
                <use fill="#485590" xlink:href="#k"/>
                <g mask="url(#l)">
                    <path d="M8.68 17.653v-5.407c0-1.676 2.303-5.099 6.459-5.099 4.155 0 6.46 3.242 6.46 5.253v5.253H8.678" fill="#543222"/>
                    <path d="M15.127 24.14c-2.244 0-5.194 1.662-6.767 3.67a.652.652 0 0 0 .015.823c2.268 2.641 11.437 2.628 13.533-.002a.652.652 0 0 0 0-.804c-1.573-2.017-4.537-3.687-6.78-3.687" fill="#5E75F9"/>
                    <path d="M22.668 18.723c-.811.812-1.948.99-2.539.4-.591-.592-.412-1.728.4-2.54.81-.811 1.948-.99 2.538-.399.591.59.413 1.728-.399 2.54M7.609 18.723c.812.812 1.948.99 2.54.4.59-.592.412-1.728-.4-2.54-.811-.811-1.948-.99-2.54-.399-.59.59-.411 1.728.4 2.54" fill="#E57E5A"/>
                    <path d="M9.538 17.66c-.384-.392-.926-.812-1.488-.812a.264.264 0 1 0 0 .528c.58 0 1.286.81 1.556 1.183.15.214.337.402.337.402-.109-.378-.132-.965-.132-.99 0-.025-.273-.31-.273-.31M20.434 17.97c0 .026-.023.613-.131.991 0 0 .186-.188.337-.402.27-.374.975-1.183 1.556-1.183a.264.264 0 1 0 0-.528c-.563 0-1.104.42-1.488.813 0 0-.274.285-.274.31" fill="#CC6436"/>
                    <path d="M17.233 24.548c-.257-.065-.52-.183-.786-.224v-3.441c0-.727-.594-1.32-1.32-1.32-.726 0-1.32.593-1.32 1.32v3.442c-.251.038-.499.153-.742.213-.01.08-.016.385-.016.468a2.099 2.099 0 1 0 4.198 0c0-.08-.005-.38-.014-.458" fill="#E28F6B"/>
                    <path d="M15.139 22.687c5.562 0 5.316-4.819 5.316-5.622v-3.41a5.328 5.328 0 1 0-10.655 0v3.457c0 .966-.224 5.575 5.339 5.575" fill="#FF9566"/>
                    <path d="M11.51 9.767c3.158 3.16 7.646 3.143 10.129.66 2.089-2.09-.029-4.217-.887-4.217 0 0-1.367 1.911-4.506 1.017-2.391-.68-4.737 1.017-4.737 2.54" fill="#543222"/>
                    <path d="M13.614 15.968a.728.728 0 0 0-.73-.726.728.728 0 0 0-.731.726c0 .4.327.726.73.726.404 0 .73-.325.73-.726M17.372 15.25a.72.72 0 0 0-.723.718.72.72 0 0 0 .723.718.72.72 0 0 0 .723-.718.72.72 0 0 0-.723-.718M13.924 13.683a.264.264 0 0 0 .128-.512c-.838-.21-2.047.146-2.485.733a.264.264 0 1 0 .423.316c.306-.41 1.319-.69 1.934-.537M16.267 14.326c.264 0 .561-.047.849-.092.446-.07 1.002-.158 1.174.015a.264.264 0 0 0 .374-.374c-.362-.362-1.007-.26-1.63-.163a5.377 5.377 0 0 1-.767.086.264.264 0 0 0 0 .528M16.732 19.611c.081-.12.05-.28-.068-.362a.266.266 0 0 0-.367.063c-.012.017-.316.423-1.17.423-.879 0-1.3-.43-1.32-.452a.264.264 0 0 0-.388.358c.023.026.581.622 1.709.622 1.15 0 1.586-.625 1.604-.652" fill="#6B1818"/>
                </g>
            </g>
            <path d="M64.534 27v-1.308h-4.956v-2.244h4.356V22.14h-4.356v-2.064h4.884v-1.308h-6.42V27h6.492zm2.94 0v-3.672c0-.448.12-.816.36-1.104.24-.288.536-.432.888-.432.664 0 .996.384.996 1.152V27h1.44v-3.672c0-.448.118-.816.354-1.104.236-.288.53-.432.882-.432.664 0 .996.384.996 1.152V27h1.44v-4.344c0-.736-.172-1.272-.516-1.608-.344-.336-.816-.504-1.416-.504-.4 0-.764.09-1.092.27-.328.18-.596.418-.804.714h-.096c-.288-.656-.836-.984-1.644-.984-.4 0-.754.088-1.062.264a2.332 2.332 0 0 0-.774.72h-.084l-.12-.84h-1.188V27h1.44zm10.44 0v-3.672c0-.448.12-.816.36-1.104.24-.288.536-.432.888-.432.664 0 .996.384.996 1.152V27h1.44v-3.672c0-.448.118-.816.354-1.104.236-.288.53-.432.882-.432.664 0 .996.384.996 1.152V27h1.44v-4.344c0-.736-.172-1.272-.516-1.608-.344-.336-.816-.504-1.416-.504-.4 0-.764.09-1.092.27-.328.18-.596.418-.804.714h-.096c-.288-.656-.836-.984-1.644-.984-.4 0-.754.088-1.062.264a2.332 2.332 0 0 0-.774.72h-.084l-.12-.84h-1.188V27h1.44zm11.628.144c.824 0 1.492-.198 2.004-.594.512-.396.768-.982.768-1.758h-1.416c0 .4-.124.702-.372.906-.248.204-.572.306-.972.306-.536 0-.926-.146-1.17-.438-.244-.292-.378-.75-.402-1.374h4.332v-.432c0-1.104-.23-1.916-.69-2.436-.46-.52-1.154-.78-2.082-.78-1.016 0-1.774.268-2.274.804s-.75 1.368-.75 2.496.248 1.96.744 2.496 1.256.804 2.28.804zm1.272-3.972h-2.808c.056-.504.206-.878.45-1.122.244-.244.606-.366 1.086-.366.848 0 1.272.496 1.272 1.488zm4.368 3.972c.16 0 .336-.02.528-.06.192-.04.352-.084.48-.132v-.984h-.564c-.344 0-.516-.18-.516-.54v-3.564h1.08v-1.176h-1.08v-1.764h-1.152l-.264 1.764h-.792v1.176h.768v3.708c0 .448.118.822.354 1.122.236.3.622.45 1.158.45zm3.768 0c.16 0 .336-.02.528-.06.192-.04.352-.084.48-.132v-.984h-.564c-.344 0-.516-.18-.516-.54v-3.564h1.08v-1.176h-1.08v-1.764h-1.152l-.264 1.764h-.792v1.176h.768v3.708c0 .448.118.822.354 1.122.236.3.622.45 1.158.45zm9.984-.144c.744 0 1.35-.192 1.818-.576.468-.384.702-.948.702-1.692 0-.52-.146-.96-.438-1.32a1.915 1.915 0 0 0-1.134-.684v-.048c.392-.128.714-.36.966-.696.252-.336.378-.732.378-1.188 0-.4-.098-.754-.294-1.062a1.946 1.946 0 0 0-.816-.714 2.685 2.685 0 0 0-1.182-.252h-4.464V27h4.464zm-.408-4.86h-2.52v-2.064h2.616c.32 0 .572.088.756.264.184.176.276.436.276.78 0 .296-.1.54-.3.732-.2.192-.476.288-.828.288zm.204 3.552h-2.724v-2.268h2.64c.408 0 .716.1.924.3.208.2.312.48.312.84 0 .376-.104.658-.312.846-.208.188-.488.282-.84.282zM114.334 27v-3.288c0-1.136.508-1.704 1.524-1.704h.456v-1.356a1.573 1.573 0 0 0-.6-.108c-.656 0-1.128.38-1.416 1.14h-.084l-.132-.996h-1.188V27h1.44zm5.712.144c1.04 0 1.818-.268 2.334-.804s.774-1.368.774-2.496-.258-1.96-.774-2.496-1.294-.804-2.334-.804-1.818.268-2.334.804-.774 1.368-.774 2.496.258 1.96.774 2.496 1.294.804 2.334.804zm0-1.176c-.576 0-.99-.166-1.242-.498-.252-.332-.378-.846-.378-1.542v-.168c0-.696.126-1.21.378-1.542.252-.332.666-.498 1.242-.498.568 0 .98.166 1.236.498.256.332.384.846.384 1.542v.168c0 .696-.128 1.21-.384 1.542-.256.332-.668.498-1.236.498zM127.054 27l.804-3.288c.08-.328.168-.776.264-1.344h.06c.112.576.208 1.028.288 1.356l.78 3.276h1.512l1.884-6.312h-1.38l-.756 2.952a75.34 75.34 0 0 0-.372 1.68h-.06a93.084 93.084 0 0 0-.36-1.68l-.756-2.952h-1.548l-.708 2.94c-.072.28-.192.844-.36 1.692h-.06c-.176-.88-.3-1.448-.372-1.704l-.78-2.928h-1.488L125.542 27h1.512zm7.932 0v-3.672c0-.448.136-.816.408-1.104a1.331 1.331 0 0 1 1.008-.432c.384 0 .674.092.87.276.196.184.294.492.294.924V27h1.44v-4.26c0-.768-.18-1.326-.54-1.674-.36-.348-.86-.522-1.5-.522-.44 0-.83.086-1.17.258-.34.172-.626.414-.858.726h-.084l-.12-.84h-1.188V27h1.44z" fill="#FFF" fill-rule="nonzero"/>
            <path d="M59.856 41c.139 0 .235-.07.288-.208l1.8-5.144a.38.38 0 0 0 .008-.088.154.154 0 0 0-.048-.112.154.154 0 0 0-.112-.048h-.384a.21.21 0 0 0-.14.044.204.204 0 0 0-.068.1l-1.592 4.576-1.584-4.576a.204.204 0 0 0-.068-.1.21.21 0 0 0-.14-.044h-.384a.167.167 0 0 0-.116.048.148.148 0 0 0-.052.112l.016.088 1.8 5.144c.053.139.15.208.288.208h.488zm4.232.08c.32 0 .584-.052.792-.156.208-.104.39-.26.544-.468v.36a.179.179 0 0 0 .184.184h.344a.179.179 0 0 0 .184-.184v-3.792a.179.179 0 0 0-.184-.184h-.368a.179.179 0 0 0-.184.184v2.216c0 .379-.1.676-.3.892-.2.216-.47.324-.812.324-.704 0-1.056-.405-1.056-1.216v-2.216a.179.179 0 0 0-.184-.184h-.368a.179.179 0 0 0-.184.184v2.256c0 .544.139.98.416 1.308.277.328.67.492 1.176.492zm4.896 0c.341 0 .644-.06.908-.18s.468-.263.612-.428c.144-.165.216-.307.216-.424a.125.125 0 0 0-.052-.104.197.197 0 0 0-.124-.04h-.352a.33.33 0 0 0-.136.02.416.416 0 0 0-.112.116c-.08.107-.199.21-.356.308-.157.099-.361.148-.612.148a.956.956 0 0 1-.784-.368 1.486 1.486 0 0 1-.32-.888v-.072h2.776a.179.179 0 0 0 .184-.184v-.144c0-.64-.161-1.147-.484-1.52-.323-.373-.777-.56-1.364-.56-.544 0-.979.17-1.304.512-.325.341-.504.8-.536 1.376l-.008.264.008.272c.032.587.21 1.05.536 1.388.325.339.76.508 1.304.508zm1.12-2.456h-2.232V38.6c0-.373.099-.677.296-.912.197-.235.47-.352.816-.352.341 0 .613.117.816.352.203.235.304.539.304.912v.024zM72.488 41a.179.179 0 0 0 .184-.184v-.552a.193.193 0 0 0-.052-.136.172.172 0 0 0-.132-.056h-.552a.172.172 0 0 0-.132.056.193.193 0 0 0-.052.136v.552a.179.179 0 0 0 .184.184h.552zm1.92-4.944a.179.179 0 0 0 .184-.184v-.416a.193.193 0 0 0-.052-.136.172.172 0 0 0-.132-.056h-.496a.172.172 0 0 0-.132.056.193.193 0 0 0-.052.136v.416a.179.179 0 0 0 .184.184h.496zm-1.224 6.464c.896 0 1.344-.47 1.344-1.408v-4.088a.179.179 0 0 0-.184-.184h-.36a.187.187 0 0 0-.132.048.176.176 0 0 0-.052.136v4.08c0 .261-.044.46-.132.596-.088.136-.263.204-.524.204h-.112a.173.173 0 0 0-.128.048.173.173 0 0 0-.048.128v.256c0 .053.016.097.048.132a.166.166 0 0 0 .128.052h.152zm3.976-1.44c.357 0 .665-.053.924-.16.259-.107.453-.253.584-.44.13-.187.196-.395.196-.624a.995.995 0 0 0-.316-.76c-.21-.197-.57-.35-1.076-.456a4.737 4.737 0 0 1-.736-.204c-.165-.067-.277-.139-.336-.216a.456.456 0 0 1-.088-.284c0-.181.07-.327.208-.436.139-.11.339-.164.6-.164.176 0 .323.02.44.06a.76.76 0 0 1 .268.144c.061.056.137.135.228.236.032.059.085.088.16.088h.304c.048 0 .09-.016.124-.048a.157.157 0 0 0 .052-.12c0-.101-.06-.227-.18-.376-.12-.15-.299-.28-.536-.392a2.003 2.003 0 0 0-.86-.168c-.32 0-.596.057-.828.172a1.267 1.267 0 0 0-.524.448 1.05 1.05 0 0 0-.176.572c0 .304.096.552.288.744.192.192.52.339.984.44.341.075.599.144.772.208.173.064.297.136.372.216a.45.45 0 0 1 .112.32.513.513 0 0 1-.26.464c-.173.107-.404.16-.692.16-.256 0-.46-.043-.612-.128a1.457 1.457 0 0 1-.412-.352.346.346 0 0 0-.076-.072.153.153 0 0 0-.076-.016h-.336a.19.19 0 0 0-.12.044.149.149 0 0 0-.056.124c0 .101.061.23.184.384.123.155.31.292.564.412.253.12.564.18.932.18zm6.736-.08c.539 0 .97-.077 1.296-.232.325-.155.564-.39.716-.708.152-.317.233-.73.244-1.236.005-.16.008-.37.008-.632 0-.261-.003-.47-.008-.624-.01-.725-.195-1.268-.552-1.628-.357-.36-.939-.54-1.744-.54h-1.808a.166.166 0 0 0-.128.052.198.198 0 0 0-.048.14v5.224c0 .053.016.097.048.132a.166.166 0 0 0 .128.052h1.848zm-.04-.664h-1.232v-4.28h1.192c.555 0 .953.124 1.196.372s.37.639.38 1.172c.01.31.016.507.016.592 0 .08-.005.28-.016.6-.01.379-.065.679-.164.9a.952.952 0 0 1-.48.488c-.221.104-.519.156-.892.156zm5.064.744c.341 0 .644-.06.908-.18s.468-.263.612-.428c.144-.165.216-.307.216-.424a.125.125 0 0 0-.052-.104.197.197 0 0 0-.124-.04h-.352a.33.33 0 0 0-.136.02.416.416 0 0 0-.112.116c-.08.107-.199.21-.356.308-.157.099-.361.148-.612.148a.956.956 0 0 1-.784-.368 1.486 1.486 0 0 1-.32-.888v-.072h2.776a.179.179 0 0 0 .184-.184v-.144c0-.64-.161-1.147-.484-1.52-.323-.373-.777-.56-1.364-.56-.544 0-.979.17-1.304.512-.325.341-.504.8-.536 1.376l-.008.264.008.272c.032.587.21 1.05.536 1.388.325.339.76.508 1.304.508zm1.12-2.456h-2.232V38.6c0-.373.099-.677.296-.912.197-.235.47-.352.816-.352.341 0 .613.117.816.352.203.235.304.539.304.912v.024zM93.368 41c.139 0 .237-.067.296-.2l1.48-3.712.016-.08a.163.163 0 0 0-.048-.12.154.154 0 0 0-.112-.048h-.368a.197.197 0 0 0-.124.04.189.189 0 0 0-.068.088l-1.232 3.192-1.232-3.192c-.043-.085-.107-.128-.192-.128h-.368a.154.154 0 0 0-.112.048.163.163 0 0 0-.048.12.28.28 0 0 0 .008.08l1.488 3.712c.059.133.157.2.296.2h.32zm4.144.08c.341 0 .644-.06.908-.18s.468-.263.612-.428c.144-.165.216-.307.216-.424a.125.125 0 0 0-.052-.104.197.197 0 0 0-.124-.04h-.352a.33.33 0 0 0-.136.02.416.416 0 0 0-.112.116c-.08.107-.199.21-.356.308-.157.099-.361.148-.612.148a.956.956 0 0 1-.784-.368 1.486 1.486 0 0 1-.32-.888v-.072h2.776a.179.179 0 0 0 .184-.184v-.144c0-.64-.161-1.147-.484-1.52-.323-.373-.777-.56-1.364-.56-.544 0-.979.17-1.304.512-.325.341-.504.8-.536 1.376l-.008.264.008.272c.032.587.21 1.05.536 1.388.325.339.76.508 1.304.508zm1.12-2.456H96.4V38.6c0-.373.099-.677.296-.912.197-.235.47-.352.816-.352.341 0 .613.117.816.352.203.235.304.539.304.912v.024zM100.88 41a.179.179 0 0 0 .184-.184v-5.312a.179.179 0 0 0-.184-.184h-.352a.187.187 0 0 0-.132.048.176.176 0 0 0-.052.136v5.312a.179.179 0 0 0 .184.184h.352zm3.072.08c.587 0 1.039-.165 1.356-.496.317-.33.487-.77.508-1.32a3.8 3.8 0 0 0 0-.688c-.021-.55-.193-.99-.516-1.32-.323-.33-.772-.496-1.348-.496-.576 0-1.025.165-1.348.496-.323.33-.495.77-.516 1.32l-.008.344.008.344c.021.55.19.99.508 1.32.317.33.77.496 1.356.496zm0-.6c-.341 0-.612-.108-.812-.324-.2-.216-.308-.527-.324-.932l-.008-.304.008-.304c.016-.405.124-.716.324-.932.2-.216.47-.324.812-.324.341 0 .612.108.812.324.2.216.308.527.324.932.005.053.008.155.008.304 0 .15-.003.25-.008.304-.016.405-.124.716-.324.932-.2.216-.47.324-.812.324zm3.44 2.04a.179.179 0 0 0 .184-.184v-1.864c.293.405.725.608 1.296.608.56 0 .98-.179 1.26-.536.28-.357.428-.808.444-1.352.005-.059.008-.15.008-.272 0-.123-.003-.213-.008-.272-.016-.55-.164-1.001-.444-1.356-.28-.355-.7-.532-1.26-.532-.57 0-1.01.205-1.32.616v-.352c0-.059-.016-.104-.048-.136-.032-.032-.077-.048-.136-.048h-.336a.187.187 0 0 0-.132.048.176.176 0 0 0-.052.136v5.312c0 .059.017.104.052.136a.187.187 0 0 0 .132.048h.36zm1.328-2.064c-.363 0-.641-.119-.836-.356a1.363 1.363 0 0 1-.308-.844 4.042 4.042 0 0 1-.008-.312v-.104c.002-.095.004-.164.008-.208.01-.336.11-.628.3-.876s.47-.372.844-.372c.757 0 1.136.512 1.136 1.536 0 .101-.003.179-.008.232-.016.39-.112.704-.288.944s-.456.36-.84.36zm4.52.624c.341 0 .644-.06.908-.18s.468-.263.612-.428c.144-.165.216-.307.216-.424a.125.125 0 0 0-.052-.104.197.197 0 0 0-.124-.04h-.352a.33.33 0 0 0-.136.02.416.416 0 0 0-.112.116c-.08.107-.199.21-.356.308-.157.099-.361.148-.612.148a.956.956 0 0 1-.784-.368 1.486 1.486 0 0 1-.32-.888v-.072h2.776a.179.179 0 0 0 .184-.184v-.144c0-.64-.161-1.147-.484-1.52-.323-.373-.777-.56-1.364-.56-.544 0-.979.17-1.304.512-.325.341-.504.8-.536 1.376l-.008.264.008.272c.032.587.21 1.05.536 1.388.325.339.76.508 1.304.508zm1.12-2.456h-2.232V38.6c0-.373.099-.677.296-.912.197-.235.47-.352.816-.352.341 0 .613.117.816.352.203.235.304.539.304.912v.024zM116.608 41a.193.193 0 0 0 .136-.052.172.172 0 0 0 .056-.132v-2.36c0-.293.084-.525.252-.696.168-.17.399-.256.692-.256h.456a.176.176 0 0 0 .136-.052.187.187 0 0 0 .048-.132v-.296c0-.059-.016-.104-.048-.136-.032-.032-.077-.048-.136-.048h-.312c-.523 0-.893.181-1.112.544v-.352a.19.19 0 0 0-.052-.14.19.19 0 0 0-.14-.052h-.336a.172.172 0 0 0-.132.056.193.193 0 0 0-.052.136v3.784a.179.179 0 0 0 .184.184h.36z" fill="#667DFF" fill-rule="nonzero"/>
            <rect fill="#3F4C8A" x="16" y="60" width="71" height="4" rx="2"/>
            <rect fill="#3F4C8A" x="16" y="70" width="41" height="4" rx="2"/>
            <rect fill="#3F4C8A" x="16" y="80" width="23" height="4" rx="2"/>
            <rect fill="#3F4C8A" x="89" y="60" width="34" height="4" rx="2"/>
            <rect fill="#3F4C8A" x="59" y="70" width="15" height="4" rx="2"/>
            <rect fill="#3F4C8A" x="41" y="80" width="33" height="4" rx="2"/>
            <rect fill="#3F4C8A" x="125" y="60" width="54" height="4" rx="2"/>
            <rect fill="#3F4C8A" x="76" y="70" width="54" height="4" rx="2"/>
            <rect fill="#3F4C8A" x="76" y="80" width="7" height="4" rx="2"/>
            <rect fill="#3F4C8A" x="181" y="60" width="29" height="4" rx="2"/>
            <rect fill="#3F4C8A" x="132" y="70" width="39" height="4" rx="2"/>
            <rect fill="#3F4C8A" x="87" y="80" width="90" height="4" rx="2"/>
        </g>
        <g fill="#FFF">
            <path d="M675 160.5c4.004 0 7.63 1.623 10.253 4.247A14.455 14.455 0 0 1 689.5 175c0 4.004-1.623 7.63-4.247 10.253A14.455 14.455 0 0 1 675 189.5h-44c-4.004 0-7.63-1.623-10.253-4.247A14.455 14.455 0 0 1 616.5 175v-14.5z" stroke="#FFF" fill-opacity=".3"/>
            <path d="M631.328 179c.088 0 .16-.028.216-.084a.278.278 0 0 0 .084-.204v-3.204h3.504v3.204c0 .08.028.148.084.204a.278.278 0 0 0 .204.084h1.116a.273.273 0 0 0 .21-.084.289.289 0 0 0 .078-.204V170.9a.305.305 0 0 0-.078-.216.273.273 0 0 0-.21-.084h-1.116a.278.278 0 0 0-.204.084.292.292 0 0 0-.084.216v3.084h-3.504V170.9a.292.292 0 0 0-.084-.216.292.292 0 0 0-.216-.084h-1.104a.273.273 0 0 0-.21.084.305.305 0 0 0-.078.216v7.812c0 .08.028.148.084.204a.278.278 0 0 0 .204.084h1.104zm8.808 0a.273.273 0 0 0 .21-.084.289.289 0 0 0 .078-.204v-7.824a.284.284 0 0 0-.078-.21.284.284 0 0 0-.21-.078h-1.152a.289.289 0 0 0-.204.078.273.273 0 0 0-.084.21v7.824c0 .08.028.148.084.204a.278.278 0 0 0 .204.084h1.152zm3.552 0c.088 0 .16-.028.216-.084a.278.278 0 0 0 .084-.204v-2.88h1.644l1.536 2.844c.056.096.12.174.192.234.072.06.172.09.3.09h1.104a.25.25 0 0 0 .174-.072.235.235 0 0 0 .078-.18.299.299 0 0 0-.036-.132l-1.74-3.06c.504-.176.896-.462 1.176-.858.28-.396.42-.886.42-1.47 0-.84-.278-1.488-.834-1.944-.556-.456-1.326-.684-2.31-.684h-3.108a.273.273 0 0 0-.21.084.305.305 0 0 0-.078.216v7.812c0 .08.028.148.084.204a.278.278 0 0 0 .204.084h1.104zm1.968-4.536h-1.668v-2.52h1.668c.48 0 .84.11 1.08.33.24.22.36.534.36.942 0 .408-.12.718-.36.93-.24.212-.6.318-1.08.318zM656.06 179c.088 0 .16-.026.216-.078a.273.273 0 0 0 .084-.21v-.816a.273.273 0 0 0-.084-.21.305.305 0 0 0-.216-.078h-4.032v-2.172h3.672c.088 0 .16-.026.216-.078a.273.273 0 0 0 .084-.21v-.756a.292.292 0 0 0-.084-.216.292.292 0 0 0-.216-.084h-3.672v-2.1h3.936c.088 0 .16-.026.216-.078a.273.273 0 0 0 .084-.21v-.804a.292.292 0 0 0-.084-.216.292.292 0 0 0-.216-.084h-5.292a.273.273 0 0 0-.21.084.305.305 0 0 0-.078.216v7.812c0 .08.028.148.084.204a.278.278 0 0 0 .204.084h5.388zm5.856 0a.273.273 0 0 0 .21-.084.289.289 0 0 0 .078-.204v-5.16l1.668 3.168c.104.176.24.264.408.264h.504c.176 0 .308-.088.396-.264l1.668-3.168v5.16c0 .08.028.148.084.204a.278.278 0 0 0 .204.084h1.032c.088 0 .16-.026.216-.078a.273.273 0 0 0 .084-.21V170.9a.292.292 0 0 0-.084-.216.292.292 0 0 0-.216-.084h-.96c-.152 0-.272.076-.36.228l-2.316 4.296-2.316-4.296c-.088-.152-.208-.228-.36-.228h-.972a.273.273 0 0 0-.21.084.305.305 0 0 0-.078.216v7.812c0 .08.028.148.084.204a.278.278 0 0 0 .204.084h1.032zm14.1 0c.088 0 .16-.026.216-.078a.273.273 0 0 0 .084-.21v-.816a.273.273 0 0 0-.084-.21.305.305 0 0 0-.216-.078h-4.032v-2.172h3.672c.088 0 .16-.026.216-.078a.273.273 0 0 0 .084-.21v-.756a.292.292 0 0 0-.084-.216.292.292 0 0 0-.216-.084h-3.672v-2.1h3.936c.088 0 .16-.026.216-.078a.273.273 0 0 0 .084-.21v-.804a.292.292 0 0 0-.084-.216.292.292 0 0 0-.216-.084h-5.292a.273.273 0 0 0-.21.084.305.305 0 0 0-.078.216v7.812c0 .08.028.148.084.204a.278.278 0 0 0 .204.084h5.388z" fill-rule="nonzero"/>
        </g>
        <g fill="#FFF">
            <path d="M276.5 104.5V119c0 4.004-1.623 7.63-4.247 10.253A14.455 14.455 0 0 1 262 133.5h-44c-4.004 0-7.63-1.623-10.253-4.247A14.455 14.455 0 0 1 203.5 119c0-4.004 1.623-7.63 4.247-10.253A14.455 14.455 0 0 1 218 104.5h58.5z" stroke="#FFF" fill-opacity=".3"/>
            <path d="M218.328 123c.088 0 .16-.028.216-.084a.278.278 0 0 0 .084-.204v-3.204h3.504v3.204c0 .08.028.148.084.204a.278.278 0 0 0 .204.084h1.116a.273.273 0 0 0 .21-.084.289.289 0 0 0 .078-.204V114.9a.305.305 0 0 0-.078-.216.273.273 0 0 0-.21-.084h-1.116a.278.278 0 0 0-.204.084.292.292 0 0 0-.084.216v3.084h-3.504V114.9a.292.292 0 0 0-.084-.216.292.292 0 0 0-.216-.084h-1.104a.273.273 0 0 0-.21.084.305.305 0 0 0-.078.216v7.812c0 .08.028.148.084.204a.278.278 0 0 0 .204.084h1.104zm8.808 0a.273.273 0 0 0 .21-.084.289.289 0 0 0 .078-.204v-7.824a.284.284 0 0 0-.078-.21.284.284 0 0 0-.21-.078h-1.152a.289.289 0 0 0-.204.078.273.273 0 0 0-.084.21v7.824c0 .08.028.148.084.204a.278.278 0 0 0 .204.084h1.152zm3.552 0c.088 0 .16-.028.216-.084a.278.278 0 0 0 .084-.204v-2.88h1.644l1.536 2.844c.056.096.12.174.192.234.072.06.172.09.3.09h1.104a.25.25 0 0 0 .174-.072.235.235 0 0 0 .078-.18.299.299 0 0 0-.036-.132l-1.74-3.06c.504-.176.896-.462 1.176-.858.28-.396.42-.886.42-1.47 0-.84-.278-1.488-.834-1.944-.556-.456-1.326-.684-2.31-.684h-3.108a.273.273 0 0 0-.21.084.305.305 0 0 0-.078.216v7.812c0 .08.028.148.084.204a.278.278 0 0 0 .204.084h1.104zm1.968-4.536h-1.668v-2.52h1.668c.48 0 .84.11 1.08.33.24.22.36.534.36.942 0 .408-.12.718-.36.93-.24.212-.6.318-1.08.318zM243.06 123c.088 0 .16-.026.216-.078a.273.273 0 0 0 .084-.21v-.816a.273.273 0 0 0-.084-.21.305.305 0 0 0-.216-.078h-4.032v-2.172h3.672c.088 0 .16-.026.216-.078a.273.273 0 0 0 .084-.21v-.756a.292.292 0 0 0-.084-.216.292.292 0 0 0-.216-.084h-3.672v-2.1h3.936c.088 0 .16-.026.216-.078a.273.273 0 0 0 .084-.21v-.804a.292.292 0 0 0-.084-.216.292.292 0 0 0-.216-.084h-5.292a.273.273 0 0 0-.21.084.305.305 0 0 0-.078.216v7.812c0 .08.028.148.084.204a.278.278 0 0 0 .204.084h5.388zm5.856 0a.273.273 0 0 0 .21-.084.289.289 0 0 0 .078-.204v-5.16l1.668 3.168c.104.176.24.264.408.264h.504c.176 0 .308-.088.396-.264l1.668-3.168v5.16c0 .08.028.148.084.204a.278.278 0 0 0 .204.084h1.032c.088 0 .16-.026.216-.078a.273.273 0 0 0 .084-.21V114.9a.292.292 0 0 0-.084-.216.292.292 0 0 0-.216-.084h-.96c-.152 0-.272.076-.36.228l-2.316 4.296-2.316-4.296c-.088-.152-.208-.228-.36-.228h-.972a.273.273 0 0 0-.21.084.305.305 0 0 0-.078.216v7.812c0 .08.028.148.084.204a.278.278 0 0 0 .204.084h1.032zm14.1 0c.088 0 .16-.026.216-.078a.273.273 0 0 0 .084-.21v-.816a.273.273 0 0 0-.084-.21.305.305 0 0 0-.216-.078h-4.032v-2.172h3.672c.088 0 .16-.026.216-.078a.273.273 0 0 0 .084-.21v-.756a.292.292 0 0 0-.084-.216.292.292 0 0 0-.216-.084h-3.672v-2.1h3.936c.088 0 .16-.026.216-.078a.273.273 0 0 0 .084-.21v-.804a.292.292 0 0 0-.084-.216.292.292 0 0 0-.216-.084h-5.292a.273.273 0 0 0-.21.084.305.305 0 0 0-.078.216v7.812c0 .08.028.148.084.204a.278.278 0 0 0 .204.084h5.388z" fill-rule="nonzero"/>
        </g>
        <rect fill="#3F4C8A" opacity=".295" x="22" y="238" width="180" height="32" rx="4"/>
        <rect fill="#3F4C8A" opacity=".458" x="186" width="180" height="32" rx="4"/>
        <rect stroke="#667DFF" x="189.5" y="3.5" width="179" height="31" rx="4"/>
        <path d="M231.444 20c.088 0 .16-.028.216-.084a.278.278 0 0 0 .084-.204v-.864a.278.278 0 0 0-.084-.204.292.292 0 0 0-.216-.084h-3.804v-6.672a.284.284 0 0 0-.078-.21.284.284 0 0 0-.21-.078h-1.128a.289.289 0 0 0-.204.078.273.273 0 0 0-.084.21v7.824c0 .08.028.148.084.204a.278.278 0 0 0 .204.084h5.22zm3.996.12c.936 0 1.66-.24 2.172-.72.512-.48.788-1.144.828-1.992.008-.096.012-.272.012-.528s-.004-.432-.012-.528c-.04-.84-.32-1.502-.84-1.986s-1.24-.726-2.16-.726c-.928 0-1.652.242-2.172.726-.52.484-.8 1.146-.84 1.986l-.012.528.012.528c.04.848.316 1.512.828 1.992s1.24.72 2.184.72zm0-1.212c-.424 0-.752-.132-.984-.396-.232-.264-.356-.652-.372-1.164l-.012-.468.012-.468c.016-.512.14-.902.372-1.17.232-.268.56-.402.984-.402.416 0 .74.134.972.402.232.268.356.658.372 1.17.008.08.012.236.012.468 0 .232-.004.388-.012.468-.016.512-.138.9-.366 1.164-.228.264-.554.396-.978.396zm7.044 1.212c.648 0 1.188-.116 1.62-.348.432-.232.752-.51.96-.834.208-.324.32-.626.336-.906a.234.234 0 0 0-.078-.204.298.298 0 0 0-.21-.084h-1.068c-.088 0-.154.02-.198.06a.477.477 0 0 0-.114.192c-.12.312-.276.534-.468.666s-.444.198-.756.198c-.832 0-1.272-.52-1.32-1.56l-.012-.396.012-.444c.016-.528.138-.92.366-1.176.228-.256.546-.384.954-.384.304 0 .554.068.75.204.196.136.354.356.474.66.04.096.08.162.12.198.04.036.104.054.192.054h1.068c.08 0 .15-.028.21-.084a.234.234 0 0 0 .078-.204c-.016-.296-.13-.606-.342-.93-.212-.324-.536-.598-.972-.822-.436-.224-.97-.336-1.602-.336-.88 0-1.582.244-2.106.732-.524.488-.802 1.164-.834 2.028l-.012.48.012.48c.032.864.31 1.54.834 2.028s1.226.732 2.106.732zm5.976 0c.48 0 .88-.082 1.2-.246.32-.164.568-.374.744-.63v.468c0 .08.028.148.084.204a.278.278 0 0 0 .204.084h.996a.273.273 0 0 0 .21-.084.289.289 0 0 0 .078-.204v-3.768c0-.688-.216-1.244-.648-1.668-.432-.424-1.12-.636-2.064-.636-.576 0-1.06.094-1.452.282-.392.188-.682.408-.87.66-.188.252-.286.478-.294.678 0 .08.026.144.078.192a.265.265 0 0 0 .186.072h.936c.088 0 .148-.048.18-.144l.198-.198c.1-.1.23-.198.39-.294.16-.096.372-.144.636-.144.384 0 .664.088.84.264.176.176.264.436.264.78v.252l-1.644.24c-.768.12-1.372.348-1.812.684-.44.336-.66.776-.66 1.32 0 .336.098.644.294.924.196.28.464.502.804.666.34.164.714.246 1.122.246zm.408-1.152c-.296 0-.55-.07-.762-.21a.671.671 0 0 1-.318-.594c0-.472.46-.78 1.38-.924l1.2-.192v.24c0 .544-.14.96-.42 1.248-.28.288-.64.432-1.08.432zm8.4 1.032a.273.273 0 0 0 .21-.084.289.289 0 0 0 .078-.204v-.756a.284.284 0 0 0-.078-.21.284.284 0 0 0-.21-.078h-.84c-.272 0-.468-.088-.588-.264-.12-.176-.18-.436-.18-.78v-2.58h1.5c.08 0 .148-.028.204-.084a.278.278 0 0 0 .084-.204v-.708a.278.278 0 0 0-.084-.204.278.278 0 0 0-.204-.084h-1.5v-1.992a.284.284 0 0 0-.078-.21.284.284 0 0 0-.21-.078h-.996a.289.289 0 0 0-.204.078.273.273 0 0 0-.084.21v1.992h-.948a.278.278 0 0 0-.204.084.278.278 0 0 0-.084.204v.708c0 .08.028.148.084.204a.278.278 0 0 0 .204.084h.948v2.712c0 .736.184 1.294.552 1.674.368.38.916.57 1.644.57h.984zm2.7-7.26c.08 0 .15-.028.21-.084a.269.269 0 0 0 .09-.204v-.876a.292.292 0 0 0-.084-.216.292.292 0 0 0-.216-.084h-1.104a.278.278 0 0 0-.204.084.292.292 0 0 0-.084.216v.876c0 .08.028.148.084.204a.278.278 0 0 0 .204.084h1.104zm-.036 7.26c.08 0 .148-.028.204-.084a.278.278 0 0 0 .084-.204v-5.664a.278.278 0 0 0-.084-.204.278.278 0 0 0-.204-.084h-1.02a.289.289 0 0 0-.204.078.273.273 0 0 0-.084.21v5.664c0 .08.028.148.084.204a.278.278 0 0 0 .204.084h1.02zm4.644.12c.936 0 1.66-.24 2.172-.72.512-.48.788-1.144.828-1.992.008-.096.012-.272.012-.528s-.004-.432-.012-.528c-.04-.84-.32-1.502-.84-1.986s-1.24-.726-2.16-.726c-.928 0-1.652.242-2.172.726-.52.484-.8 1.146-.84 1.986l-.012.528.012.528c.04.848.316 1.512.828 1.992s1.24.72 2.184.72zm0-1.212c-.424 0-.752-.132-.984-.396-.232-.264-.356-.652-.372-1.164l-.012-.468.012-.468c.016-.512.14-.902.372-1.17.232-.268.56-.402.984-.402.416 0 .74.134.972.402.232.268.356.658.372 1.17.008.08.012.236.012.468 0 .232-.004.388-.012.468-.016.512-.138.9-.366 1.164-.228.264-.554.396-.978.396zm5.7 1.092a.273.273 0 0 0 .21-.084.289.289 0 0 0 .078-.204v-3.3c0-.456.124-.816.372-1.08.248-.264.576-.396.984-.396.424 0 .75.13.978.39.228.26.342.622.342 1.086v3.3c0 .08.028.148.084.204a.278.278 0 0 0 .204.084h1.08a.273.273 0 0 0 .21-.084.289.289 0 0 0 .078-.204V16.34c0-.84-.216-1.5-.648-1.98-.432-.48-1.016-.72-1.752-.72-.848 0-1.516.3-2.004.9v-.492a.284.284 0 0 0-.078-.21.284.284 0 0 0-.21-.078h-.996a.289.289 0 0 0-.204.078.273.273 0 0 0-.084.21v5.664c0 .08.028.148.084.204a.278.278 0 0 0 .204.084h1.068z" fill="#FFF" fill-rule="nonzero"/>
        <rect stroke="#667DFF" fill="#3F4C8A" x=".5" y="222.5" width="179" height="31" rx="4"/>
        <path d="M29.402 245.722c.366.37.957.37 1.323 0a.956.956 0 0 0 0-1.34l-2.888-2.888a6.569 6.569 0 1 0-1.331 1.334l2.896 2.894zm-11.525-8.153a4.692 4.692 0 1 1 9.384 0 4.692 4.692 0 0 1-9.384 0z" fill="#FFF" fill-rule="nonzero"/>
        <path d="M210 6a8 8 0 0 1 2.622 15.56 957.68 957.68 0 0 1-1.708 3.846c-.352.792-1.476.792-1.828 0 0 0-1.635-3.672-1.703-3.844A8 8 0 0 1 210 6zm0 2a6 6 0 0 0-1.623 11.778 1 1 0 0 1 .644.557l.979 2.218.979-2.218a1 1 0 0 1 .644-.557A6 6 0 0 0 210 8zm0 3a3 3 0 1 1 0 6 3 3 0 0 1 0-6zm0 2a1 1 0 1 0 0 2 1 1 0 0 0 0-2z" fill="#667DFF"/>
        <path d="M44.864 242.12c.68 0 1.278-.1 1.794-.3.516-.2.916-.49 1.2-.87.284-.38.426-.83.426-1.35 0-.472-.1-.86-.3-1.164-.2-.304-.51-.556-.93-.756-.42-.2-.986-.38-1.698-.54a10.9 10.9 0 0 1-1.188-.366c-.272-.108-.472-.234-.6-.378a.783.783 0 0 1-.192-.54c0-.32.126-.564.378-.732.252-.168.598-.252 1.038-.252.4 0 .736.086 1.008.258.272.172.428.386.468.642.064.144.184.216.36.216h1.14a.235.235 0 0 0 .18-.078.25.25 0 0 0 .072-.174c-.016-.344-.15-.69-.402-1.038-.252-.348-.62-.638-1.104-.87-.484-.232-1.058-.348-1.722-.348-.632 0-1.186.104-1.662.312-.476.208-.842.494-1.098.858a2.106 2.106 0 0 0-.384 1.242c0 .688.22 1.216.66 1.584.44.368 1.132.664 2.076.888.576.152 1.01.282 1.302.39.292.108.51.234.654.378a.733.733 0 0 1 .216.54c0 .328-.142.586-.426.774-.284.188-.706.282-1.266.282-.496 0-.886-.092-1.17-.276-.284-.184-.466-.412-.546-.684a.637.637 0 0 0-.156-.168.363.363 0 0 0-.216-.06h-1.092a.235.235 0 0 0-.18.078.25.25 0 0 0-.072.174c.016.416.156.8.42 1.152.264.352.652.636 1.164.852.512.216 1.128.324 1.848.324zm7.344 0c.56 0 1.052-.096 1.476-.288.424-.192.75-.418.978-.678.228-.26.342-.486.342-.678a.2.2 0 0 0-.078-.168.296.296 0 0 0-.186-.06h-1.056a.494.494 0 0 0-.204.03.65.65 0 0 0-.168.162c-.288.368-.66.552-1.116.552-.4 0-.714-.146-.942-.438-.228-.292-.35-.662-.366-1.11v-.096h3.984c.088 0 .16-.028.216-.084a.278.278 0 0 0 .084-.204v-.252c0-.96-.258-1.728-.774-2.304-.516-.576-1.25-.864-2.202-.864-.928 0-1.654.288-2.178.864-.524.576-.786 1.364-.786 2.364l.012.3c.032.944.31 1.672.834 2.184.524.512 1.234.768 2.13.768zm1.308-3.792h-2.628v-.024c0-.472.116-.85.348-1.134.232-.284.552-.426.96-.426.408 0 .73.142.966.426.236.284.354.662.354 1.134v.024zm4.74 3.792c.48 0 .88-.082 1.2-.246.32-.164.568-.374.744-.63v.468c0 .08.028.148.084.204a.278.278 0 0 0 .204.084h.996a.273.273 0 0 0 .21-.084.289.289 0 0 0 .078-.204v-3.768c0-.688-.216-1.244-.648-1.668-.432-.424-1.12-.636-2.064-.636-.576 0-1.06.094-1.452.282-.392.188-.682.408-.87.66-.188.252-.286.478-.294.678 0 .08.026.144.078.192a.265.265 0 0 0 .186.072h.936c.088 0 .148-.048.18-.144l.198-.198c.1-.1.23-.198.39-.294.16-.096.372-.144.636-.144.384 0 .664.088.84.264.176.176.264.436.264.78v.252l-1.644.24c-.768.12-1.372.348-1.812.684-.44.336-.66.776-.66 1.32 0 .336.098.644.294.924.196.28.464.502.804.666.34.164.714.246 1.122.246zm.408-1.152c-.296 0-.55-.07-.762-.21a.671.671 0 0 1-.318-.594c0-.472.46-.78 1.38-.924l1.2-.192v.24c0 .544-.14.96-.42 1.248-.28.288-.64.432-1.08.432zm6 1.032c.08 0 .148-.028.204-.084a.278.278 0 0 0 .084-.204v-3.288c0-.376.108-.672.324-.888.216-.216.512-.324.888-.324h.948a.273.273 0 0 0 .21-.084.289.289 0 0 0 .078-.204v-.876a.284.284 0 0 0-.078-.21.284.284 0 0 0-.21-.078h-.504c-.752 0-1.328.264-1.728.792v-.492a.292.292 0 0 0-.084-.216.292.292 0 0 0-.216-.084h-.984a.278.278 0 0 0-.204.084.292.292 0 0 0-.084.216v5.652c0 .08.028.148.084.204a.278.278 0 0 0 .204.084h1.068zm6.288.12c.648 0 1.188-.116 1.62-.348.432-.232.752-.51.96-.834.208-.324.32-.626.336-.906a.234.234 0 0 0-.078-.204.298.298 0 0 0-.21-.084h-1.068c-.088 0-.154.02-.198.06a.477.477 0 0 0-.114.192c-.12.312-.276.534-.468.666s-.444.198-.756.198c-.832 0-1.272-.52-1.32-1.56l-.012-.396.012-.444c.016-.528.138-.92.366-1.176.228-.256.546-.384.954-.384.304 0 .554.068.75.204.196.136.354.356.474.66.04.096.08.162.12.198.04.036.104.054.192.054h1.068c.08 0 .15-.028.21-.084a.234.234 0 0 0 .078-.204c-.016-.296-.13-.606-.342-.93-.212-.324-.536-.598-.972-.822-.436-.224-.97-.336-1.602-.336-.88 0-1.582.244-2.106.732-.524.488-.802 1.164-.834 2.028l-.012.48.012.48c.032.864.31 1.54.834 2.028s1.226.732 2.106.732zm5.556-.12a.273.273 0 0 0 .21-.084.289.289 0 0 0 .078-.204v-3.3c0-.456.124-.816.372-1.08.248-.264.576-.396.984-.396.424 0 .75.13.978.39.228.26.342.622.342 1.086v3.3c0 .08.028.148.084.204a.292.292 0 0 0 .216.084h1.092a.273.273 0 0 0 .21-.084.289.289 0 0 0 .078-.204v-3.372c0-.832-.22-1.49-.66-1.974-.44-.484-1.028-.726-1.764-.726-.808 0-1.452.288-1.932.864v-2.736a.284.284 0 0 0-.078-.21.284.284 0 0 0-.21-.078h-1.092a.289.289 0 0 0-.204.078.273.273 0 0 0-.084.21v7.944c0 .08.028.148.084.204a.278.278 0 0 0 .204.084h1.092z" fill="#FFF" fill-rule="nonzero"/>
    </g>
</svg>
