<svg width="50" height="53" viewBox="0 0 50 53" xmlns="http://www.w3.org/2000/svg">
    <g fill-rule="nonzero" fill="none">
        <path d="M15.746 18.528c-1.658-2.141-2.56-4.42-3.337-6.78-.188-.566.127-.856.51-1.143 1.29-.964 2.62-1.895 4.145-2.409 1.105-.37 1.428-1.01 1.35-2.127-.096-1.417.028-2.85-.041-4.273-.03-.774.315-1.03.964-1.183A25.514 25.514 0 0 1 30.387.6c.762.163.92.553 1.02 1.31.3 2.284-.435 3.489-2.694 4.494-5.567 2.49-9.99 6.442-12.967 12.125zM44.348 26.039c0 .552.146 1.154-.028 1.643-.616 1.735.373 2.462 1.719 3.067.573.288 1.13.606 1.67.953 2.321 1.345 2.343 1.353 1.352 3.908a23.986 23.986 0 0 1-5.039 7.97c-.157.166-.29.398-.483.475-.81.332-3.738-2.005-3.65-2.886.534-5.266.205-10.431-1.889-15.368a36.36 36.36 0 0 0-1.688-3.298c-.276-.52-.235-.724.392-.752a27.047 27.047 0 0 1 6.688.578c.881.18.81.93.89 1.514.06.735.068 1.473.025 2.21l.041-.014zM3.503 30.873c.35.24.693.461 1.02.704 3.922 2.906 8.217 4.99 13.068 5.801 1.442.238 2.898.476 4.376.376.798-.052.994.199.591.934a25.776 25.776 0 0 1-3.66 5.143c-.456.492-.854.553-1.428.277-1.62-.771-3.227-1.572-4.61-2.721-.523-.434-.896-.426-1.437-.091-1.41.861-2.862 1.657-4.268 2.513-.627.387-1.033.318-1.52-.243-2.464-2.845-4.378-5.983-5.5-9.588-.24-.768-.143-1.163.575-1.517.947-.478 1.831-1.041 2.793-1.588z" fill="#3E9DE9"/>
        <path d="M13.812 30.246c-2.61.276-4.972-.053-7.32-.47-.777-.135-.937-.668-.992-1.276-.155-1.696-.243-3.406.06-5.086.136-.729-.019-1.077-.643-1.414-1.409-.765-2.762-1.624-4.18-2.39-.64-.353-.9-.643-.632-1.48a26.602 26.602 0 0 1 5.613-9.688c.453-.514.829-.522 1.41-.202 2.891 1.57 2.792 1.545 2.574 4.9-.357 5.556.577 10.893 3.362 15.788.218.387.444.774.748 1.318zM26.812 14.257a23.113 23.113 0 0 1 4.216-6.16c.422-.456.781-.315 1.21-.133a18.785 18.785 0 0 1 4.621 2.696c.553.456.959.462 1.553.086 1.359-.856 2.781-1.61 4.143-2.445.586-.356.995-.425 1.52.163a26.155 26.155 0 0 1 5.621 9.845c.194.636.089.945-.464 1.188a.917.917 0 0 0-.243.125c-1.751 1.519-3.221 1.361-5.182-.058-4.826-3.498-10.304-5.36-16.357-5.227a5.398 5.398 0 0 1-.638-.08zM18.682 46.898c2.556-1.243 5.105-2.486 7.41-4.185a26.52 26.52 0 0 0 7.933-9.177c1.657 2.121 2.585 4.5 3.384 6.936.171.525-.238.74-.553.987a18.232 18.232 0 0 1-4.536 2.59c-.707.277-.991.606-.96 1.382.068 1.608 0 3.218.027 4.829 0 .596-.05.953-.807 1.127a24.945 24.945 0 0 1-11.992-.177c-.058-.017-.085-.144-.127-.218.475-1.337.105-2.727.221-4.094z" fill="#1870C7"/>
        <path d="M19.798 26a5.086 5.086 0 0 1 10.172.06c0 2.727-2.404 5.09-5.114 5.053-2.71-.036-5.088-2.406-5.058-5.113z" fill="#FFF"/>
        <path d="M18.682 46.898c-.116 1.367.254 2.762-.215 4.102.041-1.367-.381-2.762.215-4.102z" fill="#316BB4"/>
    </g>
</svg>
