<svg width="118" height="118" viewBox="0 0 118 118" xmlns="http://www.w3.org/2000/svg">
    <g fill="none" fill-rule="evenodd">
        <rect fill="#FEEEFC" width="118" height="118" rx="14"/>
        <g fill-rule="nonzero">
            <path d="M82.152 28.33H36.535a2.465 2.465 0 0 0-2.465 2.464v64.75a2.465 2.465 0 0 0 2.465 2.465h45.617a2.464 2.464 0 0 0 2.464-2.465v-64.75a2.464 2.464 0 0 0-2.464-2.465z" fill="#E9B7E3"/>
            <path d="M79.99 31.098H38.697c-.886 0-1.605.719-1.605 1.605v60.904c0 .887.719 1.605 1.605 1.605H79.99c.886 0 1.605-.718 1.605-1.605V32.703c0-.886-.719-1.605-1.605-1.605z" fill="#FFF"/>
            <path d="M45.247 50.78a4.3 4.3 0 1 0 0-8.599 4.3 4.3 0 0 0 0 8.598zM45.247 63.078a4.3 4.3 0 1 0 0-8.598 4.3 4.3 0 0 0 0 8.598zM45.247 75.377a4.3 4.3 0 1 0 0-8.598 4.3 4.3 0 0 0 0 8.598z" fill="#667DFF"/>
            <path d="M44.388 48.594a.588.588 0 0 1-.414-.171l-1.192-1.192a.586.586 0 0 1 .827-.828l.779.778 2.21-2.21a.587.587 0 1 1 .828.827l-2.624 2.625a.584.584 0 0 1-.414.171z" fill="#FFF"/>
            <path d="M76.712 45.164H53.845a1.317 1.317 0 0 0 0 2.633h22.867a1.317 1.317 0 0 0 0-2.633z" fill="#E5E9F1"/>
            <path d="M44.388 60.893a.585.585 0 0 1-.414-.171l-1.192-1.192a.586.586 0 0 1 .827-.828l.779.778 2.21-2.21a.585.585 0 0 1 .828.827l-2.624 2.625a.584.584 0 0 1-.414.171z" fill="#FFF"/>
            <path d="M76.712 57.462H53.845a1.317 1.317 0 0 0 0 2.633h22.867a1.317 1.317 0 0 0 0-2.633z" fill="#E5E9F1"/>
            <path d="M44.388 73.192a.585.585 0 0 1-.414-.171l-1.192-1.193a.585.585 0 0 1 .827-.827l.779.778 2.21-2.211a.585.585 0 0 1 .828.828l-2.624 2.624a.58.58 0 0 1-.414.172z" fill="#FFF"/>
            <path d="M76.712 69.761H53.845a1.317 1.317 0 0 0 0 2.634h22.867a1.317 1.317 0 0 0 0-2.634zM45.247 87.676a4.3 4.3 0 1 0 0-8.599 4.3 4.3 0 0 0 0 8.599zM76.712 82.06H53.845a1.317 1.317 0 0 0 0 2.633h22.867a1.317 1.317 0 0 0 0-2.633z" fill="#E5E9F1"/>
            <path d="M70.527 24.95h-3.313a3.603 3.603 0 0 1-3.238-2.09 4.862 4.862 0 0 0-8.775 0 3.603 3.603 0 0 1-3.238 2.09H48.65a1.776 1.776 0 0 0-1.775 1.775v6.767a1.776 1.776 0 0 0 1.775 1.775h21.877a1.775 1.775 0 0 0 1.775-1.775v-6.767a1.775 1.775 0 0 0-1.775-1.776z" fill="#F655E6"/>
            <path d="M69.696 32.644H50.06a.7.7 0 0 0 0 1.4h19.636a.7.7 0 1 0 0-1.4z" fill="#FFF" opacity=".2"/>
        </g>
    </g>
</svg>
