<svg width="37" height="51" viewBox="0 0 37 51" xmlns="http://www.w3.org/2000/svg">
    <g fill-rule="nonzero" fill="none">
        <path d="M1.992 43.469.286 8.492A6 6 0 0 1 5.85 2.215L30.438.46a6 6 0 0 1 6.428 5.985v37.852a6 6 0 0 1-6.293 5.992L7.692 49.17a6 6 0 0 1-5.7-5.7z" fill="#FF4785"/>
        <path fill="#FFF" d="m27.461 6.771.47-6.3 4.42-.377v6.677l-2.222-2.01zM21.563 19.802l7.267-.18c.181-7.043-3.475-10.518-9.84-10.518s-9.932 3.61-9.932 9.028c0 9.434 12.189 9.615 12.189 14.761 0 1.445-.677 2.302-2.167 2.302-1.941 0-2.709-1.264-2.618-4.785h-7.63C8.247 39.123 13.348 41.11 19.17 41.11c5.643 0 10.067-2.618 10.067-8.306 0-10.112-12.37-9.841-12.37-14.852 0-2.031 1.445-2.302 2.303-2.302.903 0 2.528.361 2.393 4.153z"/>
    </g>
</svg>
