<svg width="118" height="118" viewBox="0 0 118 118" xmlns="http://www.w3.org/2000/svg">
    <g fill="none" fill-rule="evenodd">
        <rect fill="#FFF4EC" width="118" height="118" rx="14"/>
        <g fill-rule="nonzero">
            <path d="M78.643 39.39v-7.413H42.188v7.414a13.195 13.195 0 0 0 4.352 9.792l12.974 11.714L46.54 72.61a13.193 13.193 0 0 0-4.352 9.793v7.413h36.455v-7.413a13.19 13.19 0 0 0-4.351-9.792L61.317 60.897l12.975-11.714a13.192 13.192 0 0 0 4.351-9.792z" fill="#F9D6BD"/>
            <path d="M51.532 53.69c4.094-4.621 8.884 4.563 17.767 0l-9.992 5.587-7.775-5.587z" fill="#417A93"/>
            <path d="M51.532 53.69c4.094-4.621 8.884 4.563 17.767 0l-9.992 5.587-7.775-5.587z" fill="#8497FF"/>
            <path d="M65.167 53.938a6.033 6.033 0 0 0 4.91-2.486 31.29 31.29 0 0 0 5.875-18.248v-1.227h-4.684v1.227c0 6.62-2.098 13.07-5.994 18.422-.265.365-.527.733-.784 1.103a.77.77 0 0 0 .633 1.209h.044z" fill="#FFF" opacity=".2"/>
            <path d="M79.306 24.068h-37.78c-.741 0-1.342.6-1.342 1.341v5.525c0 .74.6 1.34 1.341 1.34h37.78c.742 0 1.342-.6 1.342-1.34v-5.525c0-.74-.6-1.34-1.341-1.34zM79.306 89.816h-37.78c-.741 0-1.342.6-1.342 1.34v5.526c0 .74.6 1.34 1.341 1.34h37.78c.742 0 1.342-.6 1.342-1.34v-5.525c0-.74-.6-1.341-1.341-1.341z" fill="#FF993D"/>
            <path d="m72.693 86.004-7.186-4.848a9.512 9.512 0 0 1-4.116-6.702h-.011c-.041-.411-.063-.808-.063-1.178v-12.38L69.3 53.69c-6.899-2.443-10.837 5.047-17.767 0l7.984 7.207v12.377a9.508 9.508 0 0 1-4.19 7.881l-7.185 4.849a4.599 4.599 0 0 0-2.027 3.812h28.605a4.598 4.598 0 0 0-2.026-3.812z" fill="#667DFF"/>
            <path d="M65.123 67.856a.77.77 0 0 0-.633 1.208c.258.37.519.738.784 1.103a31.306 31.306 0 0 1 5.994 18.422v1.227h4.684v-1.227a31.29 31.29 0 0 0-5.875-18.247 6.037 6.037 0 0 0-4.91-2.486h-.044z" fill="#FFF" opacity=".2"/>
            <path d="M55.66 23.238a3.3 3.3 0 0 1-3.297-3.297.828.828 0 0 0-.83-.814.814.814 0 0 0-.814.814 3.317 3.317 0 0 1-3.314 3.314.814.814 0 1 0 0 1.627 3.317 3.317 0 0 1 3.314 3.314.814.814 0 1 0 1.627 0 3.317 3.317 0 0 1 3.313-3.314.829.829 0 0 0 .814-.83.813.813 0 0 0-.814-.814zM43.395 92.147a3.3 3.3 0 0 1 0-4.662.828.828 0 0 0-.587-1.401.814.814 0 0 0-.575.238 3.317 3.317 0 0 1-4.686 0 .814.814 0 0 0-1.15 1.151 3.317 3.317 0 0 1 0 4.686.813.813 0 1 0 1.15 1.15 3.316 3.316 0 0 1 4.686 0 .828.828 0 0 0 1.4-.586.815.815 0 0 0-.238-.576zM82.66 62.478a3.3 3.3 0 0 1 0-4.662.827.827 0 0 0-.586-1.4.814.814 0 0 0-.576.238 3.316 3.316 0 0 1-4.686 0 .814.814 0 0 0-1.15 1.15 3.316 3.316 0 0 1 0 4.686.814.814 0 0 0 1.15 1.151 3.317 3.317 0 0 1 4.686 0 .828.828 0 0 0 1.163-.012.814.814 0 0 0 0-1.15z" fill="#667DFF"/>
        </g>
    </g>
</svg>
